<?xml version="1.0" encoding="UTF-8" standalone="no"?>
<!DOCTYPE svg PUBLIC "-//W3C//DTD SVG 1.1//EN" "http://www.w3.org/Graphics/SVG/1.1/DTD/svg11.dtd">
<svg width="100%" height="100%" viewBox="0 0 1756 2707" version="1.1" xmlns="http://www.w3.org/2000/svg" xmlns:xlink="http://www.w3.org/1999/xlink" xml:space="preserve" xmlns:serif="http://www.serif.com/" style="fill-rule:evenodd;clip-rule:evenodd;stroke-linejoin:round;stroke-miterlimit:2;">
    <g id="Artboard1" transform="matrix(1,0,0,1,-936.732,-2306.06)">
        <rect x="936.732" y="2306.06" width="1755.44" height="2706.94" style="fill:none;"/>
        <clipPath id="_clip1">
            <rect x="936.732" y="2306.06" width="1755.44" height="2706.94"/>
        </clipPath>
        <g clip-path="url(#_clip1)">
            <g transform="matrix(0.622833,0,0,0.835431,583.287,548.414)">
                <rect x="568.653" y="2103.95" width="2818.47" height="3240.17" style="fill:rgb(219,218,219);"/>
            </g>
            <g transform="matrix(1,0,0,1,0.731771,0.0599464)">
                <path d="M936.929,5012.95L936.762,3806.84L2694.77,2312.67L2693.49,3429.67L936.929,5012.95Z" style="fill:rgb(126,183,229);"/>
            </g>
            <g transform="matrix(1,0,0,1,0.731771,0.0599464)">
                <path d="M936.732,5013L2692.17,3425.21L2692.37,5012.82L936.732,5013Z" style="fill:rgb(50,96,164);"/>
            </g>
            <g id="Outline" transform="matrix(0.993859,-0.110654,0.110654,0.993859,-260.933,203.715)">
                <path d="M2580.67,2472.31C2577.18,2468.08 2572.82,2464.66 2567.87,2462.3C2554.76,2456.05 2529.1,2443.8 2529.1,2443.8L2498.07,2432.59L2490.37,2414.99C2484.96,2406.07 2476.99,2397.21 2465.11,2392.61C2453.24,2389.45 2442.28,2389.89 2431.49,2391.05L2390.5,2402.88L2377.4,2401.23C2377.4,2401.23 2361.41,2391 2355.72,2387.36C2354.41,2386.53 2352.96,2385.94 2351.44,2385.62C2345.45,2384.38 2329.81,2381.15 2329.81,2381.15C2322.9,2376.06 2318.32,2380.01 2318.32,2380.01C2318.32,2380.01 2305.88,2376.46 2299.32,2377.66C2297.56,2380.42 2296.71,2383.43 2297.56,2386.96C2293.43,2389.66 2292.37,2388.25 2289.36,2387.2C2284.85,2382.24 2279.99,2380.69 2274.73,2383.25C2276.07,2386.75 2278.47,2390.07 2281.66,2393.25L2297.62,2401.78L2317.15,2416.91L2303.98,2416.91C2303.69,2416.91 2303.42,2417.07 2303.28,2417.32C2303.14,2417.57 2303.14,2417.88 2303.29,2418.13C2304.98,2420.93 2306.89,2423.74 2309.17,2426.54C2315.75,2430.86 2320.98,2432.76 2325.68,2433.69C2325.68,2433.69 2318.59,2437.3 2314.3,2439.49C2312.18,2440.57 2310.28,2442.02 2308.68,2443.78C2301.01,2452.22 2277.69,2477.87 2277.69,2477.87C2277.69,2477.87 2271.1,2486.59 2265.95,2493.41C2262.13,2498.46 2260.71,2504.94 2262.07,2511.13C2262.57,2513.38 2262.95,2515.13 2262.95,2515.13C2262.95,2515.13 2262.11,2517.19 2261.06,2519.77C2258.34,2526.45 2257.56,2533.75 2258.82,2540.85C2260.31,2549.29 2262.3,2560.62 2263.44,2567.05C2264.01,2570.28 2263.34,2573.61 2261.55,2576.36C2257.05,2583.31 2248.65,2596.29 2248.65,2596.29L2243.14,2615L2227.19,2631.78C2227.19,2631.78 2202.62,2649.79 2197.19,2653.76C2196.51,2654.27 2195.95,2654.91 2195.54,2655.66C2190.01,2665.78 2181.81,2674.53 2175.44,2676.92C2174.43,2677.25 2173.67,2678.11 2173.47,2679.16C2172.78,2682.68 2171.34,2690.25 2171.34,2690.25C2178.47,2681.95 2185.99,2675.57 2194.28,2674.16C2195.91,2673.9 2197.34,2672.95 2198.19,2671.54C2199.81,2668.87 2203.03,2666.54 2207.86,2664.56L2221.13,2652.97C2221.13,2652.97 2249.01,2624.82 2253.63,2620.15C2254.1,2619.68 2254.81,2619.54 2255.42,2619.8C2256.86,2620.64 2257.87,2622.49 2259.1,2625.18L2243.97,2646.36C2240.82,2652.29 2234.72,2661.59 2227.46,2672.22C2220.78,2679.47 2216.72,2686.71 2215.91,2693.96C2215.91,2693.96 2207.02,2704.98 2203.53,2709.3C2202.55,2710.53 2202.52,2712.26 2203.47,2713.51C2205.49,2716.2 2208.47,2717.21 2211.78,2717.62C2216,2722.48 2216.62,2728.44 2214.97,2733.3C2201.72,2733.9 2195.25,2732.94 2190.58,2733.71C2177.27,2735.93 2161.16,2732.38 2152.08,2727.8C2136.22,2728.81 2125.37,2726.17 2115.03,2729.73C2107.32,2732.38 2100.68,2731.12 2091.96,2730.82C2079.38,2726.43 2070.42,2726.94 2063.13,2734.29C2039.61,2727.88 2024.58,2727.72 2005.33,2727.55C1999.81,2727.49 1994.32,2728.29 1989.05,2729.91C1974.92,2734.27 1946.86,2742.93 1946.86,2742.93L1893.21,2769.07C1893.21,2769.07 1843.88,2810.29 1838.4,2814.87C1838.07,2815.15 1837.77,2815.45 1837.51,2815.79C1833.53,2820.76 1801.32,2860.95 1801.32,2860.95C1784.01,2873.89 1765.96,2883.9 1747.52,2892.32L1717.54,2908C1700.27,2920.87 1683.55,2933.74 1668.16,2946.62C1646.58,2964.95 1626.37,2977.8 1606.66,2988.61C1598.05,2990.64 1587.23,2991.84 1574.86,2992.46C1563.39,2993.76 1553.32,2996.84 1545.14,3002.37C1534.96,3009.8 1526.54,3017.22 1523.41,3024.65L1516.26,3048.04C1508.86,3059.88 1503.63,3073.51 1501.4,3089.58C1499.72,3103.69 1505.05,3117.13 1513.23,3130.3L1529.19,3157.53C1534.8,3166.34 1540.73,3174.73 1552.02,3175.97C1559.56,3186.53 1563.28,3206.41 1567.43,3225.21C1580,3242 1590.53,3261.59 1599.34,3283.54L1620.25,3311.88C1629.23,3320.24 1636.02,3322.39 1637.31,3323.31C1641.35,3326.2 1644.65,3329.73 1648.68,3331.84C1651.19,3333.16 1654.26,3332.72 1656.3,3330.75C1658.3,3328.84 1659.69,3326.34 1660.42,3323.16C1676.44,3341.34 1694.36,3354.91 1714.62,3362.77L1688.76,3386.95C1678.89,3396.35 1670.11,3408.82 1662.11,3423.49C1649.6,3432.91 1638.46,3446.64 1628.58,3464.32C1619.02,3472.85 1614.94,3485.48 1617.4,3503.01C1609.44,3514.9 1608.46,3524.17 1607.63,3539.06C1605.39,3542.29 1604.24,3544.96 1602.98,3549.25C1596.43,3571.5 1584.77,3596.97 1583.02,3623.38C1582.95,3643.94 1582.8,3664.69 1587.31,3674.96C1582,3682.48 1580.38,3698.74 1580.84,3723.4C1580.85,3724.34 1581.02,3725.27 1581.33,3726.16C1583.13,3731.29 1589.51,3749.46 1589.51,3749.46C1583.4,3769 1586.53,3786.03 1593.33,3802.64L1568.4,3865.4C1568.4,3865.4 1560.96,3893.55 1557.78,3905.6C1556.87,3909.06 1557.25,3912.73 1558.85,3915.93C1560.7,3919.65 1563.22,3924.68 1564.99,3928.21C1566.35,3930.94 1568.69,3933.07 1571.53,3934.18C1578.27,3936.8 1590.32,3941.49 1590.32,3941.49L1566.68,3982.75L1530.57,3997.8L1475.2,4026.28L1383.21,4059.81L1374.18,4058.09L1312.42,4077.63C1301.68,4069.83 1290.66,4063.31 1278.98,4059.74C1274.03,4056.62 1261.65,4056.99 1248.66,4057.66C1230.64,4050.86 1212.2,4045.89 1192.78,4045.19C1184.82,4043.33 1177.42,4039.76 1170.23,4036.95C1165.13,4034.96 1159.66,4034.95 1154.52,4034.88C1132.16,4039.49 1117.73,4046.66 1108.52,4055.51L1078.43,4089.04L1030.71,4163.84C1021.44,4176.7 1008.73,4186.89 994.174,4195.65C966.702,4215.95 958.623,4222.31 950.327,4233.48C934.225,4256.03 921.586,4281.87 917.227,4315.58C913.287,4339.94 910.882,4364.3 911.638,4388.66C911.638,4388.66 918.212,4429.67 920.14,4441.7C920.484,4443.84 921.389,4445.86 922.764,4447.55C927.17,4452.95 937.373,4465.46 942.165,4471.34C943.854,4473.41 946.03,4475.03 948.498,4476.06C952.489,4477.72 958.87,4480.37 963.676,4482.37C967.869,4484.11 972.538,4484.35 976.886,4483.04C985.136,4480.55 999.1,4476.33 1007.85,4473.69C1013,4472.13 1017.65,4469.21 1021.29,4465.24C1033.7,4451.69 1062.58,4420.16 1062.58,4420.16L1097.4,4359.11L1123.2,4318.28C1123.2,4318.28 1136.07,4325.95 1142.28,4329.65C1144.31,4330.86 1146.83,4330.94 1148.93,4329.84C1156.71,4325.78 1175.21,4316.13 1175.21,4316.13C1175.75,4313.04 1176.1,4308.31 1176.05,4299.94L1209.91,4274.15C1239.18,4272.26 1262,4263.91 1273.85,4244.6C1264.02,4236.09 1255.3,4225.78 1254.63,4216.35C1266.81,4227.43 1276.97,4230.67 1295.56,4224.33C1301.84,4219.06 1312.37,4215.27 1324.46,4216.51C1336.35,4217.72 1350.52,4215.43 1363.59,4206.98L1452.25,4210.74C1458.88,4209.56 1465.5,4210.02 1472.13,4213.43C1469.7,4222.04 1464.63,4229.06 1457.62,4234.92C1428.71,4248.91 1417.2,4252.95 1407.65,4255.88L1345.85,4287.58C1336.67,4294.82 1327,4299.58 1316.9,4302.23L1232.47,4346.15C1221.37,4353.9 1210.26,4371.81 1199.16,4398.81C1137.98,4436.6 1087.24,4466.04 1058.16,4478.15C1046.75,4482.38 1043.47,4485.24 1031.08,4492.82C1025.04,4496.52 1014.76,4497.63 1010.09,4502.64C990.282,4523.91 930.723,4550.41 880.858,4570.76C864.834,4554.9 851.617,4548.4 841.095,4550.88C827.89,4553.73 817.094,4562.21 809.391,4577.9C796.496,4585.16 785.436,4599.02 774.468,4608.54C753.44,4626.79 735.625,4642.98 725.029,4667.48C711.316,4669.8 706.469,4681.01 704.124,4682.56C699.954,4685.34 695.413,4684.51 690.101,4693.81C687.329,4701.11 689.929,4711.1 698.161,4723.9C701.207,4728.38 705.7,4732.86 715.356,4737.34L765.183,4797.3L805.33,4843.71L854.241,4907.3L893.991,4931.03L936.307,4934.39C963.712,4936.38 992.614,4936.12 1022.95,4933.71C1031.7,4929.59 1042.78,4922.25 1055.89,4912.12C1060.56,4908.53 1063.01,4902.77 1062.37,4896.92C1061.45,4888.19 1058.56,4879.83 1053.18,4871.92C1040.38,4867.49 1026.47,4864.9 1011.47,4864.13C1004.66,4855.98 996.424,4850.69 986.683,4848.41C970.905,4840.59 960.851,4828.05 957.544,4809.95C957.544,4809.95 961.972,4802.77 965.495,4797.06C968.28,4792.54 969.714,4787.32 969.629,4782.02C969.436,4770.05 969.098,4749.06 969.098,4749.06C969.098,4749.06 968.751,4735.71 968.556,4728.19C968.476,4725.12 970.111,4722.26 972.798,4720.78C976.81,4718.55 982.872,4715.19 987.881,4712.42C993.162,4709.49 996.087,4703.61 995.233,4697.63C993.685,4686.8 991.423,4670.97 991.423,4670.97L1089.48,4630.02C1105.6,4635.3 1113.68,4630.29 1116.6,4618.69C1191.73,4594.54 1266.52,4566.79 1340.91,4534.57L1482.63,4446.88C1482.63,4446.88 1595.41,4387.22 1625.92,4371.07C1630.85,4368.47 1635.02,4364.65 1638.04,4359.97C1663.05,4321.42 1692.07,4283.44 1721.45,4245.52C1747.44,4232.88 1767.47,4219.32 1783.91,4205.21C1783.91,4205.21 1789.35,4207.39 1793.31,4208.97C1795.77,4209.96 1798.58,4209.42 1800.5,4207.59C1809.73,4198.82 1836,4173.86 1836,4173.86C1836,4173.86 1919.88,4092.19 1937.76,4074.79C1939.94,4072.66 1941.57,4070.03 1942.49,4067.12C1944.97,4059.26 1949.9,4043.65 1949.9,4043.65L2004.24,3971.78L2035.19,3931.2L2054.45,3871.7L2080.59,3792.95C2080.59,3792.95 2099.04,3745.85 2104.93,3730.8C2106.12,3727.77 2106.88,3724.59 2107.19,3721.35C2108.57,3706.85 2112.57,3665.02 2112.57,3665.02L2135.26,3622.03L2170.69,3598.99L2218.68,3552.22L2243.79,3505.79L2259.26,3466.59L2337.67,3359.29C2354.99,3337.13 2375.49,3316.7 2396.14,3296.36C2393.5,3319.12 2389.03,3341.6 2382.49,3363.76C2382.49,3363.76 2378.15,3382.07 2376.88,3387.42C2376.65,3388.38 2376.5,3389.37 2376.44,3390.36C2375.88,3398.88 2373.1,3441.14 2373.1,3441.14C2373.1,3441.14 2363.67,3454.87 2360.88,3458.93C2360.37,3459.66 2360.07,3460.51 2359.98,3461.39C2359.36,3467.32 2357.45,3473.24 2354.5,3479.16C2353.07,3487.94 2352.21,3493.63 2349.58,3497.88C2348.97,3504.04 2348.15,3510.94 2345.37,3517.71C2340.69,3529.12 2338.46,3537.57 2333.97,3548.09C2329.81,3582.37 2328.21,3605.76 2325.59,3637.88L2321.59,3672.24C2319.44,3681.57 2317.36,3691.49 2315.51,3703.52C2315.69,3710.53 2316.76,3714.74 2320.56,3716.95L2307.83,3765.44L2288.23,3784.01C2280.53,3791.25 2276.07,3800.74 2274.47,3812.21C2276.86,3823.56 2279.75,3829.41 2283.07,3830.43L2281.35,3849.01C2281.41,3857.26 2285.47,3862.77 2293.05,3865.86L2307.34,3862.58C2310.94,3884.61 2318.72,3905.48 2335,3923.29C2332.39,3932.22 2331.54,3940.57 2333.15,3948.09L2324.02,3964.75L2311.66,3980.33C2310.32,3988.92 2312.8,3991.95 2317.57,3991.62L2334.76,3984.09C2341.14,3979.86 2347.33,3974.96 2350.89,3967.44C2360.55,3962.51 2368.8,3955.61 2376.12,3947.4C2381.6,3943.95 2386.65,3937.76 2391.19,3928.21C2396.59,3917.82 2400.52,3906.69 2401.76,3894.21C2401.88,3892.95 2401.84,3891.67 2401.63,3890.42C2400.38,3882.74 2395.48,3852.98 2395.48,3852.98L2386.89,3808.92L2389.57,3769.16L2400.15,3747.84C2403.2,3744.67 2408.58,3742.68 2411.84,3738.81C2425.77,3722.26 2439.03,3697.95 2453.04,3671.12C2453.05,3671.1 2453.06,3671.08 2453.07,3671.06C2474.36,3626.64 2496.24,3580.9 2514.22,3522.38C2515.33,3518.76 2515.6,3514.93 2514.99,3511.19C2513.42,3501.1 2513.2,3490.67 2513.7,3480.07C2519,3473.01 2521.11,3468.14 2520.4,3465.21C2519.64,3462.41 2517.66,3459.61 2514.26,3456.81C2514.49,3445.41 2514.51,3431.57 2517.37,3420.92L2550.24,3335.52C2559.14,3310.65 2561.96,3290.3 2564.07,3268.83L2560.99,3231.81L2603.44,3155.51C2613.22,3130.78 2620.33,3098.55 2622.22,3051.65C2622.1,3034.9 2616.22,3013.13 2600.66,2988.27C2597.95,2983.96 2594.65,2980.06 2590.85,2976.68C2580.91,2967.8 2559.91,2949.17 2559.91,2949.17C2559.77,2946.01 2558.86,2940.76 2557.36,2933.9C2556.15,2928 2552.64,2922.83 2547.6,2919.53C2531.49,2909 2517.1,2896.08 2505.37,2878.41C2499.97,2874.89 2495.36,2870.8 2492.22,2867.28C2492.22,2867.28 2500.22,2864.18 2506.22,2861.86C2510.4,2860.24 2513.89,2857.22 2516.1,2853.31C2519.59,2847.14 2524.49,2838.47 2524.49,2838.47C2527.79,2839.44 2541.74,2802.79 2541.74,2802.79L2552.46,2789.84C2555.04,2786.09 2555.94,2784.04 2558.14,2777.82C2558.99,2775.43 2559.45,2772.91 2559.49,2770.37C2559.59,2763.68 2559.79,2750.41 2559.79,2750.41L2575.46,2729.03C2579.4,2726.56 2581.59,2725.03 2582.9,2718.06L2577.31,2687.52C2577.31,2687.52 2583.7,2681.75 2589.67,2676.34C2596.31,2670.34 2600.85,2662.38 2602.65,2653.62C2604.99,2642.27 2607.94,2627.88 2607.94,2627.88C2607.94,2627.88 2613.08,2595.59 2614.86,2584.37C2615.26,2581.86 2615.48,2579.31 2615.52,2576.76C2615.62,2570.24 2615.81,2556.92 2615.92,2549.27C2615.97,2545.45 2615.58,2541.63 2614.75,2537.9C2613.18,2530.82 2610.49,2518.69 2608.83,2511.26C2607.89,2507.03 2605.97,2503.09 2603.22,2499.74C2597.43,2492.7 2586.99,2480 2580.67,2472.31ZM2288.91,2638.93C2288.84,2638.64 2288.58,2638.42 2288.27,2638.4C2287.96,2638.38 2287.68,2638.56 2287.56,2638.84C2286.23,2642.12 2283.63,2648.52 2282.86,2650.42C2282.72,2650.77 2282.51,2651.11 2282.26,2651.4C2281.1,2652.77 2277.55,2656.94 2275.95,2658.82C2275.44,2659.43 2275.16,2660.2 2275.16,2660.99C2275.16,2662.96 2275.16,2666.82 2275.16,2669.12C2275.16,2670.32 2274.7,2671.47 2273.88,2672.34C2270.26,2676.18 2260.19,2686.83 2260.19,2686.83L2247.21,2696.52C2247.21,2696.52 2243.73,2701.73 2242,2704.33C2241.45,2705.15 2241.59,2706.25 2242.33,2706.91C2244.19,2708.58 2247.43,2711.48 2247.43,2711.48C2246.66,2713.36 2245.36,2714.7 2243.46,2715.45C2243.46,2715.45 2240.84,2713.94 2239.01,2712.9C2238.63,2712.68 2238.16,2712.66 2237.75,2712.86C2237.35,2713.05 2237.07,2713.43 2237,2713.87C2236.8,2715.15 2236.55,2716.83 2236.34,2718.17C2236.13,2719.52 2234.98,2720.51 2233.62,2720.51C2232.66,2720.51 2231.6,2720.51 2230.81,2720.51C2230.08,2720.51 2229.44,2720.97 2229.21,2721.65C2228.57,2723.52 2227.31,2727.25 2226.53,2729.55C2226.37,2730.01 2226.44,2730.52 2226.71,2730.93C2226.99,2731.34 2227.44,2731.59 2227.93,2731.62C2232.54,2731.85 2243.24,2732.39 2243.24,2732.39C2243.24,2732.39 2249.17,2730.66 2252.14,2729.8C2252.56,2729.68 2252.89,2729.38 2253.07,2728.99C2253.24,2728.59 2253.23,2728.14 2253.03,2727.76C2252.5,2726.69 2251.8,2725.3 2251.37,2724.42C2251.1,2723.88 2251.03,2723.27 2251.17,2722.68C2251.85,2719.98 2253.81,2712.14 2253.81,2712.14L2257.99,2698.5C2257.99,2698.5 2271.77,2684.17 2274.15,2681.69C2274.38,2681.45 2274.56,2681.17 2274.68,2680.86C2275.76,2678.18 2281.1,2664.82 2281.1,2664.82C2285.19,2661.89 2288.64,2657.84 2291.22,2652.28C2290.93,2647.99 2290.09,2643.52 2288.91,2638.93ZM2266.55,2596.37C2266.55,2596.37 2267.85,2594.64 2268.82,2593.35C2269.4,2592.57 2269.28,2591.48 2268.54,2590.85C2268.48,2590.8 2268.41,2590.74 2268.35,2590.69C2267.45,2589.92 2266.12,2589.97 2265.29,2590.8C2264.82,2591.28 2264.3,2591.79 2263.89,2592.21C2263.33,2592.76 2263.02,2593.51 2263.02,2594.29C2263.02,2595.38 2263.02,2596.81 2263.02,2596.81C2263.02,2596.81 2262.16,2601.63 2261.96,2602.75C2261.94,2602.9 2261.94,2603.05 2261.98,2603.2C2261.98,2603.2 2261.98,2603.2 2261.98,2603.2C2262.12,2603.83 2262.55,2604.35 2263.13,2604.61C2263.72,2604.88 2264.39,2604.85 2264.95,2604.54C2264.99,2604.52 2265.03,2604.5 2265.07,2604.48C2266.49,2603.71 2267.29,2602.14 2267.08,2600.53C2266.84,2598.62 2266.55,2596.37 2266.55,2596.37Z" style="fill:white;"/>
            </g>
            <g transform="matrix(1,0,0,1,0.731771,0.0599464)">
                <path d="M1779.01,3019.4C1794.52,3006.12 1812.46,2998 1831.58,2992.38C1851.75,2984.94 1877.75,2980.5 1910.03,2982.69C1917.64,2982.83 1926.96,2984.23 1938.18,2987.07C1958.38,2991.89 1975.58,2999.12 1991.66,3007.24C1993.57,3008.21 1995.39,3009.35 1997.09,3010.66C2014.7,3024.21 2029.44,3037.56 2041.31,3050.71C2058.17,3072.45 2067.75,3084.24 2076.64,3108.85C2077.36,3110.85 2078.13,3112.84 2078.94,3114.81C2087.38,3135.26 2089.92,3159.23 2090.4,3178.23C2090.45,3180.41 2090.41,3182.6 2090.28,3184.78C2089.3,3199.66 2086.12,3218.21 2080.53,3240.79C2071.75,3263.02 2062.97,3279.49 2054.19,3290.31C2040.81,3310.39 2024.42,3325.97 2006.64,3339.44C1990.4,3350.93 1974.61,3358.05 1955.93,3363.39C1954.22,3363.88 1952.52,3364.43 1950.85,3365.04C1924.18,3374.78 1888.18,3376.72 1854.54,3371.28C1835.89,3368.93 1819.1,3362.88 1804.12,3353.2C1788.94,3347 1775.39,3341.32 1757.86,3324.74C1749.61,3317.66 1742.95,3304.24 1735.74,3293.06C1739.14,3294.8 1742.55,3295.14 1745.95,3294.24C1750.49,3293.16 1753.47,3290.06 1755.39,3285.6C1756.76,3282.78 1756.64,3277.18 1755.39,3269.48C1751.89,3265.36 1746.97,3261.86 1740.84,3258.87L1722.37,3245.9C1718.32,3240.14 1711.26,3234.37 1702.33,3228.61C1700.75,3219.57 1696.55,3210.53 1688.96,3201.49C1687.86,3198.34 1689.94,3195.9 1695.22,3192L1712.94,3199.13C1719.16,3201.92 1724.34,3204.01 1734.32,3204.55C1740.12,3207.7 1750.45,3207.16 1758.14,3205.42C1763.89,3201.66 1765.43,3196.5 1764.43,3190.48C1764.39,3185.11 1761.5,3179.74 1756.96,3174.37L1738.49,3166.9L1715.3,3160.61L1697.61,3155.5C1693.66,3152.53 1689.31,3150.15 1684.61,3148.31C1684.72,3143.64 1685.78,3141.51 1687.02,3139.86L1703.12,3138.05L1721.63,3135.63C1731.04,3135.85 1740.27,3135.33 1749.2,3133.62C1757.47,3132.19 1761.19,3128.88 1762.48,3124.57C1764.19,3119.09 1764.33,3113.44 1761.28,3107.46C1757.44,3102.72 1753.03,3099.58 1748.19,3097.6C1738.85,3096.33 1729.26,3095.13 1718.91,3096.86L1711.17,3096.8C1713.88,3091.52 1716.63,3084.85 1720.59,3081.84C1725.69,3071.55 1732.18,3066.95 1734.64,3063.7L1744.57,3050.11L1758.46,3036.83L1779.01,3019.4Z" style="fill:rgb(126,184,229);"/>
            </g>
            <g transform="matrix(0.928386,0,0,0.928386,885.915,2638.22)">
                <g transform="matrix(516.7,0,0,516.7,757.146,2467.19)">
                    <path d="M0.341,-0.298C0.358,-0.298 0.372,-0.297 0.385,-0.294C0.397,-0.291 0.406,-0.285 0.413,-0.278C0.421,-0.269 0.426,-0.258 0.427,-0.247C0.428,-0.235 0.429,-0.224 0.429,-0.213C0.429,-0.206 0.429,-0.199 0.428,-0.192C0.427,-0.185 0.425,-0.178 0.422,-0.171C0.419,-0.163 0.413,-0.154 0.406,-0.145C0.399,-0.135 0.39,-0.13 0.38,-0.13L0.058,-0.13C0.051,-0.13 0.048,-0.127 0.048,-0.12L0.048,-0.01C0.048,-0.003 0.051,0 0.058,0L0.422,0C0.437,0 0.452,-0.005 0.469,-0.014C0.485,-0.023 0.499,-0.032 0.51,-0.041C0.547,-0.074 0.569,-0.12 0.574,-0.181C0.575,-0.186 0.576,-0.192 0.576,-0.198L0.576,-0.219C0.576,-0.234 0.575,-0.25 0.573,-0.267C0.571,-0.284 0.568,-0.3 0.563,-0.315C0.558,-0.33 0.551,-0.345 0.544,-0.358C0.536,-0.371 0.526,-0.383 0.515,-0.392C0.496,-0.408 0.475,-0.419 0.452,-0.425C0.429,-0.43 0.408,-0.433 0.387,-0.433L0.275,-0.433C0.26,-0.433 0.246,-0.434 0.233,-0.435C0.22,-0.436 0.209,-0.441 0.202,-0.448C0.194,-0.457 0.189,-0.467 0.188,-0.478C0.187,-0.489 0.186,-0.5 0.186,-0.511C0.186,-0.518 0.186,-0.524 0.187,-0.531C0.188,-0.538 0.19,-0.544 0.193,-0.551C0.196,-0.558 0.202,-0.566 0.21,-0.575C0.217,-0.583 0.226,-0.587 0.235,-0.587L0.524,-0.587C0.531,-0.587 0.534,-0.59 0.534,-0.597L0.534,-0.707C0.534,-0.714 0.531,-0.717 0.524,-0.717L0.193,-0.717C0.177,-0.717 0.161,-0.713 0.144,-0.704C0.127,-0.695 0.113,-0.686 0.102,-0.677C0.063,-0.645 0.042,-0.6 0.037,-0.542C0.036,-0.536 0.035,-0.53 0.035,-0.524L0.035,-0.505C0.035,-0.49 0.036,-0.474 0.039,-0.459C0.041,-0.443 0.045,-0.428 0.05,-0.412C0.055,-0.398 0.061,-0.384 0.069,-0.371C0.076,-0.358 0.086,-0.346 0.097,-0.337C0.116,-0.322 0.138,-0.311 0.162,-0.306C0.185,-0.301 0.207,-0.298 0.228,-0.298L0.341,-0.298Z" style="fill:rgb(218,218,218);fill-rule:nonzero;"/>
                </g>
                <g transform="matrix(516.7,0,0,516.7,1071.82,2467.19)">
                    <path d="M0.041,-0.707L0.041,-0.01C0.041,-0.003 0.044,0 0.051,0L0.176,0C0.183,0 0.186,-0.003 0.186,-0.01L0.186,-0.707C0.186,-0.714 0.183,-0.717 0.176,-0.717L0.051,-0.717C0.044,-0.717 0.041,-0.714 0.041,-0.707Z" style="fill:rgb(218,218,218);fill-rule:nonzero;"/>
                </g>
                <g transform="matrix(516.7,0,0,516.7,1190.14,2467.19)">
                    <path d="M0.041,-0.707C0.041,-0.714 0.044,-0.717 0.051,-0.717L0.411,-0.717C0.435,-0.717 0.457,-0.713 0.477,-0.705C0.498,-0.697 0.516,-0.686 0.531,-0.671C0.546,-0.656 0.557,-0.637 0.566,-0.616C0.575,-0.595 0.579,-0.571 0.579,-0.544C0.579,-0.508 0.576,-0.48 0.57,-0.459C0.564,-0.438 0.557,-0.422 0.55,-0.41C0.542,-0.4 0.535,-0.392 0.529,-0.389C0.523,-0.385 0.52,-0.382 0.52,-0.38C0.52,-0.377 0.525,-0.37 0.536,-0.359C0.546,-0.348 0.557,-0.336 0.57,-0.322C0.575,-0.316 0.579,-0.309 0.583,-0.301C0.586,-0.293 0.589,-0.285 0.592,-0.277C0.595,-0.268 0.597,-0.26 0.598,-0.252C0.599,-0.243 0.599,-0.236 0.599,-0.23C0.599,-0.198 0.596,-0.168 0.59,-0.14C0.584,-0.112 0.574,-0.088 0.559,-0.067C0.544,-0.046 0.524,-0.03 0.499,-0.018C0.474,-0.006 0.443,0 0.405,0L0.051,0C0.044,0 0.041,-0.003 0.041,-0.01L0.041,-0.707ZM0.186,-0.14C0.186,-0.133 0.189,-0.13 0.196,-0.13L0.407,-0.13C0.418,-0.13 0.428,-0.133 0.435,-0.139C0.442,-0.145 0.448,-0.153 0.453,-0.162C0.458,-0.171 0.461,-0.18 0.463,-0.19C0.464,-0.2 0.465,-0.209 0.465,-0.216C0.465,-0.231 0.463,-0.244 0.46,-0.255C0.456,-0.265 0.451,-0.273 0.446,-0.279C0.44,-0.285 0.434,-0.289 0.427,-0.292C0.42,-0.294 0.413,-0.295 0.407,-0.295L0.196,-0.295C0.189,-0.295 0.186,-0.292 0.186,-0.285L0.186,-0.14ZM0.186,-0.44C0.186,-0.433 0.189,-0.43 0.196,-0.43L0.369,-0.43C0.396,-0.43 0.415,-0.436 0.426,-0.448C0.437,-0.459 0.443,-0.48 0.443,-0.511C0.443,-0.54 0.436,-0.56 0.421,-0.571C0.406,-0.582 0.389,-0.587 0.369,-0.587L0.196,-0.587C0.189,-0.587 0.186,-0.584 0.186,-0.577L0.186,-0.44Z" style="fill:rgb(218,218,218);fill-rule:nonzero;"/>
                </g>
                <g transform="matrix(516.7,0,0,516.7,1501.71,2467.19)">
                    <path d="M0.021,-0.006C0.021,-0.002 0.024,0 0.029,0L0.159,0C0.166,0 0.17,-0.003 0.172,-0.01L0.225,-0.181C0.227,-0.188 0.231,-0.192 0.238,-0.192L0.473,-0.192C0.48,-0.192 0.484,-0.189 0.486,-0.182L0.539,-0.009C0.541,-0.003 0.545,0 0.552,0L0.683,0C0.688,0 0.69,-0.002 0.69,-0.006L0.489,-0.658C0.481,-0.684 0.466,-0.7 0.445,-0.707C0.423,-0.714 0.393,-0.717 0.355,-0.717C0.318,-0.717 0.289,-0.714 0.268,-0.707C0.247,-0.7 0.232,-0.684 0.224,-0.658L0.021,-0.006ZM0.437,-0.341C0.437,-0.34 0.437,-0.339 0.438,-0.338C0.438,-0.337 0.438,-0.337 0.438,-0.336C0.438,-0.331 0.435,-0.329 0.43,-0.329L0.281,-0.329C0.276,-0.329 0.273,-0.331 0.273,-0.336C0.273,-0.337 0.273,-0.337 0.274,-0.338C0.274,-0.339 0.274,-0.34 0.274,-0.341L0.344,-0.569C0.348,-0.581 0.352,-0.587 0.355,-0.587C0.358,-0.587 0.361,-0.586 0.362,-0.584C0.363,-0.581 0.365,-0.576 0.367,-0.569L0.437,-0.341Z" style="fill:rgb(218,218,218);fill-rule:nonzero;"/>
                </g>
            </g>
        </g>
    </g>
</svg>
