<?xml version="1.0" encoding="UTF-8" standalone="no"?>
<!DOCTYPE svg PUBLIC "-//W3C//DTD SVG 1.1//EN" "http://www.w3.org/Graphics/SVG/1.1/DTD/svg11.dtd">
<svg width="100%" height="100%" viewBox="0 0 2076 1989" version="1.1" xmlns="http://www.w3.org/2000/svg" xmlns:xlink="http://www.w3.org/1999/xlink" xml:space="preserve" xmlns:serif="http://www.serif.com/" style="fill-rule:evenodd;clip-rule:evenodd;stroke-linecap:round;stroke-linejoin:round;stroke-miterlimit:1.5;">
    <g transform="matrix(0.691235,0,0,0.702823,-226.997,-212.224)">
        <g id="SIBCA-logo" serif:id="SIBCA logo">
            <rect x="328.393" y="301.96" width="3002.69" height="2828.95" style="fill:none;"/>
            <g transform="matrix(1.11865,0.779385,-0.586307,0.814006,695.686,-992.421)">
                <path d="M1989.1,403.399C2741.62,624.332 3317.09,1852.9 3317.09,1852.9C3317.09,1852.9 2346.05,2824.13 1801.82,2831.76C1332.75,2838.34 1062.72,2606.27 899.92,2261.05C816.364,2083.88 724.583,1896.24 724.583,1655.48C724.583,945.62 1295.41,199.742 1989.1,403.399Z" style="fill:rgb(114,17,33);"/>
            </g>
            <g transform="matrix(2.69515,0,0,1.96314,12891.1,1173.58)">
                <g transform="matrix(0.553141,0,0,0.789267,-4859.09,-740.86)">
                    <ellipse cx="1227.99" cy="1192.89" rx="837.855" ry="795.561" style="fill:rgb(49,54,56);stroke:rgb(240,200,8);stroke-width:33.01px;"/>
                </g>
                <g transform="matrix(0.49031,0,0,0.662037,-4729.3,-487.87)">
                    <path d="M413.439,596.006C411.669,552.773 417.086,494.487 432.289,434.144C435.792,420.24 438.944,405.921 444.347,392.263C449.208,379.972 455.314,368.47 462.111,356.996C466.683,349.278 471.499,342.298 476.667,334.961L496.884,343.934C495.006,352.257 493.811,360.226 492.096,368.58C489.581,380.823 487.758,392.827 484.976,404.9C477.902,435.605 469.809,465.507 465.828,494.252C460.617,531.877 459.391,566.645 461.356,594.401L461.394,595.989C461.455,638.653 466.247,680.995 473.959,722.868C481.771,765.28 492.649,807.188 504.867,848.438C524.626,915.794 549.307,982.264 578.198,1046.84C607.05,1111.34 640.144,1173.93 677.573,1233.7C697.956,1267.54 718.518,1301.4 740.266,1334.45C754.544,1356.15 769.306,1377.52 785.022,1398.19C797.3,1414.4 810.789,1430.73 824.668,1446.89C845.93,1471.66 868.11,1496.03 888.58,1518.85C910.461,1543.34 932.112,1567.38 953.737,1590.37C968.598,1606.17 983.43,1621.47 998.339,1636.04C1010.56,1648.03 1022.82,1659.53 1035.17,1670.43C1047.9,1681.66 1060.7,1692.26 1073.66,1702.07C1086.98,1712.18 1100.48,1721.86 1114.2,1731.24C1128.01,1740.68 1142.01,1749.83 1156.26,1758.82C1177,1771.9 1198.04,1784.13 1219.48,1795.62C1240.92,1807.12 1262.74,1817.91 1285.03,1828.11C1333.51,1847.76 1369.04,1859.47 1399.58,1866.42C1420.69,1871.23 1439.43,1872.69 1458.28,1875.08C1477.83,1877.56 1496.86,1881.22 1519.72,1883.88L1520.22,1905.99C1497.66,1909.67 1478.6,1913.61 1459.03,1914.42C1445.15,1915 1431.42,1913.49 1417,1911.73C1378.26,1907 1334.42,1895.21 1267.7,1870.44L1266.71,1870.03C1243.2,1859.95 1220.17,1849.25 1197.52,1837.81C1174.79,1826.32 1152.46,1814.06 1130.42,1800.9C1115.43,1791.94 1100.67,1782.81 1086.12,1773.35C1071.47,1763.84 1057.06,1753.98 1042.81,1743.66C1028.63,1733.36 1014.6,1722.21 1000.63,1710.37C987.368,1699.13 974.192,1687.24 961.041,1674.84C945.346,1660.01 929.704,1644.43 914.047,1628.32C891.723,1605.35 869.382,1581.28 846.789,1556.77C825.783,1533.88 802.994,1509.46 781.203,1484.58C766.37,1467.63 752.014,1450.45 738.9,1433.43C722.256,1411.77 706.525,1389.43 691.465,1366.63C669.213,1332.94 648.388,1298.29 627.853,1264.07C589.752,1202.05 555.757,1136.87 526.584,1069.58C497.446,1002.37 473.088,933.093 453.644,863.061C441.76,819.816 431.301,775.91 424.049,731.542C416.725,686.737 412.601,641.487 413.439,596.006Z" style="fill:rgb(240,200,8);"/>
                </g>
                <g transform="matrix(0.49031,0,0,0.662037,-4729.3,-487.87)">
                    <path d="M487.661,1024.09C530.54,993.185 570.07,959.874 606.056,924.039C643.054,887.197 676.283,847.662 705.1,805.45C720.15,782.832 736.469,754.52 751.937,725.776C767.652,696.575 782.476,666.919 794.149,642.127L868.025,493.495C880.644,467.465 898.886,437.301 919.168,406.947C947.764,364.149 980.368,320.872 1005.84,288.479C1022.96,266.79 1041.26,246.451 1059.24,228.133C1079.96,207.019 1100.18,188.575 1117.31,173.644C1129.41,163.131 1147.68,149.407 1165.95,138.139C1179.07,130.05 1192.15,123.187 1202.67,118.85C1209.25,116.769 1215.61,114.568 1222.24,113.089C1232.3,110.846 1241.89,109.176 1251.92,108.187C1268.98,106.506 1284.45,106.399 1300.81,105.883L1305.91,124.579L1225.86,170.35C1215.81,175.208 1203.16,183.682 1190.67,192.451C1177.95,201.381 1165.52,210.797 1156.98,218.488C1141.06,232.784 1122.31,250.472 1103.03,270.594C1086.71,287.619 1070.02,306.411 1054.49,326.485C1030.05,357.979 998.799,400.059 971.368,441.615C952.983,469.467 936.311,497.045 924.889,520.895L851.476,669.132C839.368,694.823 824.007,725.563 807.69,755.814C791.201,786.384 773.729,816.45 757.448,840.834C725.995,886.531 690.137,929.046 650.081,968.496C611.358,1006.63 568.731,1041.91 522.564,1074.62C522.013,1075.02 521.45,1075.39 520.875,1075.75C498.386,1089.51 472.731,1101.26 440.118,1109.53C416.553,1115.51 389.245,1119.7 356.695,1121.59C355.228,1121.69 353.755,1121.68 352.289,1121.56C315.879,1117.74 288.332,1110.58 263.683,1094.93C253.645,1088.56 244.027,1081.03 234.687,1071.62C223.764,1060.61 213.112,1047.59 201.561,1031.66C198.158,1026.68 193.549,1018.7 189.506,1008.8C182.624,991.939 175.875,971.063 171.731,960.148L188.615,950.636C194.783,958.528 205.096,972.759 215.091,985.725C221.387,993.894 227.501,1000.88 231.747,1004.45C253.703,1024.68 272.335,1037.2 291.241,1046.57C309.777,1055.77 329.06,1060.56 354.537,1062.3C381.901,1060.14 404.906,1056.17 424.808,1050.83C450.12,1044.05 470.161,1034.92 487.661,1024.09Z" style="fill:rgb(240,200,8);"/>
                </g>
                <g transform="matrix(0.49031,0,0,0.662037,-4729.3,-487.87)">
                    <path d="M302.985,1509.7C383.241,1434.9 463.497,1385.09 543.753,1324.34C645.51,1255.83 728.707,1196.6 855.016,1115.82C1009.33,1022.77 1143.83,942.049 1242.16,885.465C1308.24,847.438 1376.41,810.223 1443.35,772.599C1512.75,733.588 1593.71,689.399 1659.8,655.935C1718.91,626.004 1792.14,586.575 1836.59,567.685C1864.64,555.767 1926.53,542.597 1926.53,542.597" style="fill:none;stroke:rgb(240,200,8);stroke-width:58.53px;stroke-linecap:butt;"/>
                </g>
                <g transform="matrix(0.49031,0,0,0.662037,-4729.3,-487.87)">
                    <path d="M1599.39,1358.71C1630.19,1357.48 1660.16,1355.21 1689.35,1351.96C1720.1,1348.53 1749.98,1344.02 1779.03,1338.45C1780.23,1338.21 1781.44,1338.06 1782.66,1337.99C1807.4,1336.63 1843.27,1327.38 1882.03,1312.94C1898.94,1306.64 1916.16,1298.89 1933.68,1291.2C1941.01,1287.99 1948.41,1284.92 1955.83,1281.78C1968.33,1276.48 1980.63,1271.32 1992.84,1265.81C2005.56,1260.07 2017.83,1254.9 2029.65,1248.65L2046.99,1272.11C2030.78,1287.95 2013.42,1303.3 1993.79,1317.03C1981.14,1325.86 1967.75,1333.63 1954.11,1340.67C1892.65,1372.41 1827.9,1389.8 1787.96,1392.8C1758.06,1398.69 1727.31,1403.51 1695.66,1407.21C1664.98,1410.79 1633.47,1413.31 1601.08,1414.75C1600.63,1414.77 1600.17,1414.78 1599.72,1414.78L1396.63,1413.74C1394.47,1413.72 1392.36,1413.47 1390.33,1412.98C1387.79,1412.77 1383.02,1412.37 1378.34,1412.05C1345.01,1409.74 1269.92,1405.45 1223.17,1400.92C1195.2,1398.19 1164.59,1397.3 1135.09,1397.97C1103.19,1398.7 1072.61,1401.25 1048.18,1405.52C1028.01,1409.05 1006.49,1413.11 984.842,1417.96C964.2,1422.59 943.428,1427.93 923.612,1434.26C895.478,1443.24 872.064,1453.99 851.423,1465.6C825.983,1479.91 804.657,1495.52 783.944,1510.7C767.839,1522.48 752.768,1536.84 739.61,1552.1C725.607,1568.34 713.745,1585.58 705.288,1601.93C697.879,1616.25 692.352,1630.38 688.882,1644.63C685.357,1659.1 683.934,1673.65 684.77,1688.58C685.606,1703.99 687.185,1716.7 691.398,1731.46C696.25,1748.45 704.317,1767.94 717.731,1796.31C721.351,1805.04 726.566,1815.77 731.657,1827.3C736.38,1837.99 740.907,1849.12 745.197,1859.62C755.098,1883.84 762.572,1903.49 762.572,1903.49L737.456,1918.32C737.456,1918.32 714.386,1890.86 693.96,1861.33C683.806,1846.66 675.081,1831.33 668.607,1819.87C653.121,1788.01 643.979,1766.03 638.31,1746.91C632.698,1727.99 630.371,1711.67 629.11,1691.86C627.843,1671.37 629.641,1651.38 634.378,1631.5C638.77,1613.06 645.737,1594.72 655.23,1576.17C665.446,1556.21 679.695,1535.06 696.687,1515.22C712.579,1496.66 730.88,1479.26 750.374,1464.92C772.812,1448.45 795.976,1431.61 823.538,1416.08C847.196,1402.74 874.03,1390.38 906.282,1380.05C923.439,1374.56 941.256,1369.73 959.136,1365.45C986.104,1358.99 1013.21,1353.77 1038.33,1349.35C1065.16,1344.64 1098.76,1341.68 1133.8,1340.88C1165.6,1340.17 1198.6,1341.23 1228.74,1344.2C1275.01,1348.8 1349.33,1353.22 1382.31,1355.58C1390.7,1356.18 1396.67,1356.69 1399.3,1357.02L1400.47,1357.2L1599.39,1358.71ZM1374.46,1368.15C1378.86,1362.45 1385.42,1358.45 1393.07,1357.42C1382.45,1358.86 1377.13,1364.26 1374.46,1368.15Z" style="fill:rgb(240,200,8);"/>
                </g>
            </g>
        </g>
    </g>
</svg>
