<?xml version="1.0" encoding="UTF-8" standalone="no"?>
<!DOCTYPE svg PUBLIC "-//W3C//DTD SVG 1.1//EN" "http://www.w3.org/Graphics/SVG/1.1/DTD/svg11.dtd">
<svg width="100%" height="100%" viewBox="0 0 1500 512" version="1.1" xmlns="http://www.w3.org/2000/svg" xmlns:xlink="http://www.w3.org/1999/xlink" xml:space="preserve" xmlns:serif="http://www.serif.com/" style="fill-rule:evenodd;clip-rule:evenodd;stroke-linejoin:round;stroke-miterlimit:2;">
    <g transform="matrix(1,0,0,1,0,-5551)">
        <g id="Navbar-Image" serif:id="Navbar Image" transform="matrix(0.865427,0,0,0.835047,5090.51,915.483)">
            <rect x="-5882.08" y="5551.2" width="1733.25" height="613.139" style="fill:none;"/>
            <clipPath id="_clip1">
                <rect x="-5882.08" y="5551.2" width="1733.25" height="613.139"/>
            </clipPath>
            <g clip-path="url(#_clip1)">
                <g transform="matrix(1.1555,0,0,1.19754,-5882.08,-1527.44)">
                    <path d="M512,6039L512,6295C512,6365.65 454.645,6423 384,6423L128,6423C57.355,6423 0,6365.65 0,6295L0,6039C0,5968.36 57.355,5911 128,5911L384,5911C454.645,5911 512,5968.36 512,6039Z" style="fill:rgb(47,86,138);"/>
                </g>
                <g transform="matrix(1.1555,0,0,1.19754,-5882.08,-1527.44)">
                    <path d="M0,6295L0,6039C0,5968.36 57.355,5911 128,5911L384,5911C390.394,5911 396.68,5911.47 402.824,5912.38C464.558,5921.49 512,5974.75 512,6039L512,6057.13L91.423,6417.69C38.576,6401.94 0,6352.94 0,6295Z" style="fill:rgb(218,218,218);"/>
                </g>
                <g transform="matrix(0.877253,-0.779428,0.468362,0.566199,-8772.76,2510.65)">
                    <path d="M-13.65,6423C-43.518,6348.57 -40.914,6248.52 -3.205,6177.89L21.061,6132.44L551.652,6132.44C592.588,6208.07 593.943,6322.57 552.124,6400.9L540.325,6423L-13.65,6423Z" style="fill:rgb(126,184,229);"/>
                </g>
                <g id="Logo" transform="matrix(1.41289,-0.0441861,0.0477769,1.6409,-6116.72,-4214.52)">
                    <g id="Outline" transform="matrix(0.151331,-0.0150355,0.0168488,0.135044,-159.726,5673.3)">
                        <path d="M2583.79,2476.12C2578.25,2469.38 2571.3,2463.94 2563.42,2460.18C2549.71,2453.64 2529.1,2443.8 2529.1,2443.8L2498.07,2432.59L2490.37,2414.99C2484.96,2406.07 2476.99,2397.21 2465.11,2392.61C2453.24,2389.45 2442.28,2389.89 2431.49,2391.05L2390.5,2402.88L2377.4,2401.23C2377.4,2401.23 2366.68,2394.37 2359.67,2389.89C2355.75,2387.38 2351.41,2385.62 2346.85,2384.67C2339.78,2383.21 2329.81,2381.15 2329.81,2381.15C2322.9,2376.06 2318.32,2380.01 2318.32,2380.01C2318.32,2380.01 2305.88,2376.46 2299.32,2377.66C2297.56,2380.42 2296.71,2383.43 2297.56,2386.96C2293.43,2389.66 2292.37,2388.25 2289.36,2387.2C2284.85,2382.24 2279.99,2380.69 2274.73,2383.25C2276.07,2386.75 2278.47,2390.07 2281.66,2393.25L2297.62,2401.78L2317.15,2416.91C2317.15,2416.91 2313.92,2416.91 2310.5,2416.91C2308.88,2416.91 2307.39,2417.83 2306.65,2419.28C2305.92,2420.73 2306.06,2422.47 2307.03,2423.78C2307.71,2424.7 2308.42,2425.62 2309.17,2426.54C2315.75,2430.86 2320.98,2432.76 2325.68,2433.69C2325.68,2433.69 2318.03,2437.59 2313.81,2439.74C2312.02,2440.65 2310.4,2441.89 2309.05,2443.38C2301.79,2451.37 2277.69,2477.87 2277.69,2477.87C2277.69,2477.87 2272.78,2484.36 2268.13,2490.52C2262.92,2497.41 2260.99,2506.23 2262.85,2514.66C2262.91,2514.96 2262.95,2515.13 2262.95,2515.13C2262.95,2515.13 2260.49,2521.16 2258.71,2525.54C2257.53,2528.45 2257.19,2531.62 2257.73,2534.71C2258.53,2539.23 2259.79,2546.34 2260.99,2553.16C2263.14,2565.32 2260.6,2577.84 2253.88,2588.21C2251,2592.66 2248.65,2596.29 2248.65,2596.29L2243.14,2615L2227.19,2631.78C2227.19,2631.78 2210.04,2644.35 2201.23,2650.8C2198.1,2653.1 2195.42,2655.98 2193.35,2659.27C2189.2,2665.97 2183.99,2671.71 2179.25,2674.89C2175.68,2677.25 2173.21,2680.95 2172.41,2685.16C2171.79,2687.86 2171.34,2690.25 2171.34,2690.25C2177.3,2683.32 2183.53,2677.72 2190.26,2675.24C2193.99,2673.85 2197.4,2671.73 2200.3,2669C2202.11,2667.37 2204.62,2665.89 2207.86,2664.56L2221.13,2652.97C2221.13,2652.97 2241.38,2632.52 2250.22,2623.59C2251.49,2622.31 2253.3,2621.74 2255.07,2622.06C2256.85,2622.37 2258.35,2623.54 2259.09,2625.17C2259.1,2625.17 2259.1,2625.18 2259.1,2625.18L2243.97,2646.36C2240.82,2652.29 2234.72,2661.59 2227.46,2672.22C2220.78,2679.47 2216.72,2686.71 2215.91,2693.96C2215.91,2693.96 2210.69,2700.42 2206.69,2705.39C2204.98,2707.51 2204.55,2710.4 2205.56,2712.93C2206.58,2715.46 2208.88,2717.24 2211.59,2717.59C2211.65,2717.6 2211.72,2717.61 2211.78,2717.62C2216,2722.48 2216.62,2728.44 2214.97,2733.3C2201.72,2733.9 2195.25,2732.94 2190.58,2733.71C2177.27,2735.93 2161.16,2732.38 2152.08,2727.8C2136.22,2728.81 2125.37,2726.17 2115.03,2729.73C2107.32,2732.38 2100.68,2731.12 2091.96,2730.82C2079.38,2726.43 2070.42,2726.94 2063.13,2734.29C2040.75,2728.19 2026.05,2727.75 2008.08,2727.58C2000.83,2727.51 1993.6,2728.56 1986.67,2730.7C1971.98,2735.18 1946.86,2742.93 1946.86,2742.93L1893.21,2769.07C1893.21,2769.07 1851.57,2803.86 1840.56,2813.07C1838.8,2814.54 1837.18,2816.19 1835.75,2817.98C1827.9,2827.78 1801.32,2860.95 1801.32,2860.95C1784.01,2873.89 1765.96,2883.9 1747.52,2892.32L1717.54,2908C1700.27,2920.87 1683.55,2933.74 1668.16,2946.62C1646.58,2964.95 1626.37,2977.8 1606.66,2988.61C1598.05,2990.64 1587.23,2991.84 1574.86,2992.46C1563.39,2993.76 1553.32,2996.84 1545.14,3002.37C1534.96,3009.8 1526.54,3017.22 1523.41,3024.65L1516.26,3048.04C1508.86,3059.88 1503.63,3073.51 1501.4,3089.58C1499.72,3103.69 1505.05,3117.13 1513.23,3130.3L1529.19,3157.53C1534.8,3166.34 1540.73,3174.73 1552.02,3175.97C1559.56,3186.53 1563.28,3206.41 1567.43,3225.21C1580,3242 1590.53,3261.59 1599.34,3283.54L1620.25,3311.88C1629.23,3320.24 1636.02,3322.39 1637.31,3323.31C1639.97,3325.22 1642.32,3327.4 1644.76,3329.27C1647.53,3331.14 1651.04,3331.51 1654.14,3330.29C1657.24,3329.06 1659.54,3326.38 1660.28,3323.13C1660.42,3323.16 1660.42,3323.16 1660.42,3323.16C1676.44,3341.34 1694.36,3354.91 1714.62,3362.77L1688.76,3386.95C1678.89,3396.35 1670.11,3408.82 1662.11,3423.49C1649.6,3432.91 1638.46,3446.64 1628.58,3464.32C1619.02,3472.85 1614.94,3485.48 1617.4,3503.01C1609.44,3514.9 1608.46,3524.17 1607.63,3539.06C1605.39,3542.29 1604.24,3544.96 1602.98,3549.25C1596.43,3571.5 1584.77,3596.97 1583.02,3623.38C1582.95,3643.94 1582.8,3664.69 1587.31,3674.96C1582.52,3681.75 1580.73,3695.65 1580.76,3716.43C1580.76,3721.77 1581.66,3727.07 1583.43,3732.12C1585.97,3739.38 1589.51,3749.46 1589.51,3749.46C1583.4,3769 1586.53,3786.03 1593.33,3802.64L1568.4,3865.4C1568.4,3865.4 1563.95,3882.25 1560.46,3895.45C1557.82,3905.45 1558.91,3916.07 1563.54,3925.31C1563.78,3925.79 1564.01,3926.26 1564.24,3926.72C1566.09,3930.41 1569.24,3933.29 1573.09,3934.78C1579.97,3937.46 1590.32,3941.49 1590.32,3941.49L1566.68,3982.75L1530.57,3997.8L1475.2,4026.28L1383.21,4059.81L1374.18,4058.09L1312.42,4077.63C1301.68,4069.83 1290.66,4063.31 1278.98,4059.74C1274.03,4056.62 1261.65,4056.99 1248.66,4057.66C1230.64,4050.86 1212.2,4045.89 1192.78,4045.19C1184.82,4043.33 1177.42,4039.76 1170.23,4036.95C1165.12,4034.96 1159.66,4034.95 1154.52,4034.88C1132.16,4039.49 1117.73,4046.66 1108.52,4055.51L1078.43,4089.04L1030.71,4163.84C1021.44,4176.7 1008.73,4186.89 994.174,4195.65C966.702,4215.95 958.623,4222.31 950.327,4233.48C934.225,4256.03 921.586,4281.87 917.227,4315.58C913.287,4339.94 910.882,4364.3 911.638,4388.66C911.638,4388.66 915.46,4412.5 918.13,4429.16C919.791,4439.52 924.157,4449.26 930.788,4457.39C933.473,4460.68 936.289,4464.13 938.682,4467.07C942.658,4471.94 947.778,4475.76 953.587,4478.18C954.875,4478.71 956.222,4479.27 957.567,4479.83C965.711,4483.22 974.776,4483.67 983.219,4481.12C989.392,4479.26 996.738,4477.04 1002.88,4475.19C1011.29,4472.65 1018.86,4467.89 1024.79,4461.42C1038.41,4446.55 1062.58,4420.16 1062.58,4420.16L1097.4,4359.11L1123.2,4318.28C1123.2,4318.28 1127.55,4320.87 1132.42,4323.77C1140.58,4328.64 1150.68,4328.93 1159.1,4324.53C1166.92,4320.45 1175.21,4316.13 1175.21,4316.13C1175.75,4313.04 1176.1,4308.31 1176.05,4299.94L1209.91,4274.15C1239.18,4272.26 1262,4263.91 1273.85,4244.6C1264.02,4236.09 1255.3,4225.78 1254.63,4216.35C1266.81,4227.43 1276.97,4230.67 1295.56,4224.33C1301.84,4219.06 1312.37,4215.27 1324.46,4216.51C1336.35,4217.72 1350.52,4215.43 1363.59,4206.98L1452.25,4210.74C1458.88,4209.56 1465.5,4210.02 1472.13,4213.43C1469.7,4222.04 1464.63,4229.06 1457.62,4234.92C1428.71,4248.91 1417.2,4252.95 1407.65,4255.88L1345.85,4287.58C1336.67,4294.82 1327,4299.58 1316.9,4302.23L1232.47,4346.15C1221.37,4353.9 1210.26,4371.81 1199.16,4398.81C1137.98,4436.6 1087.24,4466.04 1058.16,4478.15C1046.75,4482.38 1043.47,4485.24 1031.08,4492.82C1025.04,4496.52 1014.76,4497.63 1010.09,4502.64C990.282,4523.91 930.723,4550.41 880.858,4570.76C864.834,4554.9 851.617,4548.4 841.095,4550.88C827.89,4553.73 817.094,4562.21 809.391,4577.9C796.496,4585.16 785.436,4599.02 774.468,4608.54C753.44,4626.79 735.625,4642.98 725.029,4667.48C711.316,4669.8 706.469,4681.01 704.124,4682.56C699.954,4685.34 695.413,4684.51 690.101,4693.81C687.329,4701.11 689.929,4711.1 698.161,4723.9C701.207,4728.38 705.7,4732.86 715.356,4737.34L765.183,4797.3L805.33,4843.71L854.241,4907.3L893.991,4931.03L936.307,4934.39C963.712,4936.38 992.614,4936.12 1022.95,4933.71C1028.83,4930.94 1035.76,4926.72 1043.66,4921.17C1051.44,4915.91 1056.82,4907.76 1058.59,4898.53C1060.36,4889.31 1058.39,4879.75 1053.11,4871.98C1053.18,4871.93 1053.18,4871.92 1053.18,4871.92C1040.38,4867.49 1026.47,4864.9 1011.47,4864.13C1004.66,4855.98 996.424,4850.69 986.683,4848.41C970.905,4840.59 960.851,4828.05 957.544,4809.95C957.544,4809.95 962.025,4802.69 965.559,4796.95C968.302,4792.51 969.715,4787.37 969.631,4782.14C969.438,4770.19 969.098,4749.06 969.098,4749.06C969.098,4749.06 968.895,4741.25 968.712,4734.22C968.537,4727.44 972.142,4721.14 978.067,4717.86C978.748,4717.48 979.445,4717.09 980.15,4716.7C990.086,4711.19 995.589,4700.12 993.983,4688.88C992.694,4679.86 991.423,4670.97 991.423,4670.97L1089.48,4630.02C1105.6,4635.3 1113.68,4630.29 1116.6,4618.69C1191.73,4594.54 1266.52,4566.79 1340.91,4534.57L1482.63,4446.88C1482.63,4446.88 1549.96,4411.26 1594.65,4387.62C1619.55,4374.45 1640.89,4355.44 1656.85,4332.23C1677.06,4303.11 1699.15,4274.3 1721.45,4245.52C1747.44,4232.88 1767.47,4219.32 1783.91,4205.21C1783.91,4205.21 1785.43,4205.82 1787.44,4206.62C1793.48,4209.04 1800.37,4207.72 1805.09,4203.23C1816.37,4192.52 1836,4173.86 1836,4173.86C1836,4173.86 1893.24,4118.13 1923.23,4088.93C1934.95,4077.52 1943.67,4063.39 1948.6,4047.79C1949.38,4045.3 1949.9,4043.65 1949.9,4043.65L2004.24,3971.78L2035.19,3931.2L2054.45,3871.7L2080.59,3792.95C2080.59,3792.95 2095.21,3755.61 2102.58,3736.8C2105.33,3729.79 2107.08,3722.43 2107.8,3714.94C2109.49,3697.25 2112.57,3665.02 2112.57,3665.02L2135.26,3622.03L2170.69,3598.99L2218.68,3552.22L2243.79,3505.79L2259.26,3466.59L2337.67,3359.29C2354.99,3337.13 2375.49,3316.7 2396.14,3296.36C2393.5,3319.12 2389.03,3341.6 2382.49,3363.76C2382.49,3363.76 2378.52,3380.48 2377.06,3386.63C2376.71,3388.12 2376.48,3389.63 2376.38,3391.16C2375.72,3401.24 2373.1,3441.14 2373.1,3441.14C2373.1,3441.14 2367.34,3449.53 2363.49,3455.13C2361.34,3458.26 2359.87,3461.81 2359.16,3465.54C2358.4,3470.1 2356.76,3474.63 2354.5,3479.16C2353.07,3487.94 2352.21,3493.62 2349.58,3497.88C2348.97,3504.04 2348.15,3510.94 2345.37,3517.71C2340.69,3529.12 2338.46,3537.57 2333.97,3548.09C2329.81,3582.37 2328.21,3605.76 2325.59,3637.88L2321.59,3672.24C2319.44,3681.57 2317.36,3691.49 2315.51,3703.52C2315.69,3710.53 2316.76,3714.74 2320.56,3716.95L2307.83,3765.44L2288.23,3784.01C2280.53,3791.25 2276.07,3800.74 2274.47,3812.21C2276.86,3823.56 2279.75,3829.41 2283.07,3830.43L2281.35,3849.01C2281.41,3857.26 2285.47,3862.77 2293.05,3865.86L2307.34,3862.58C2310.94,3884.61 2318.72,3905.48 2335,3923.29C2332.39,3932.22 2331.54,3940.57 2333.15,3948.09L2324.02,3964.75L2311.66,3980.33C2310.32,3988.92 2312.8,3991.95 2317.57,3991.62L2334.76,3984.09C2341.14,3979.86 2347.33,3974.96 2350.89,3967.44C2360.55,3962.51 2368.8,3955.61 2376.12,3947.4C2381.6,3943.95 2386.65,3937.76 2391.19,3928.21C2395.78,3919.38 2399.31,3910.01 2401.02,3899.73C2401.65,3895.74 2401.64,3891.67 2400.98,3887.68C2399.48,3877.31 2395.48,3852.98 2395.48,3852.98L2386.89,3808.92L2389.57,3769.16L2400.15,3747.84C2403.2,3744.67 2408.58,3742.68 2411.84,3738.81C2425.75,3722.28 2438.99,3698.03 2452.97,3671.24C2453.03,3671.14 2453.08,3671.03 2453.13,3670.93C2471.61,3632.37 2490.53,3592.8 2506.97,3544.74C2512.24,3529.19 2514.57,3512.8 2513.85,3496.4C2513.38,3491.02 2513.44,3485.57 2513.7,3480.07C2519,3473.01 2521.11,3468.14 2520.4,3465.21C2519.64,3462.41 2517.66,3459.61 2514.26,3456.81C2514.49,3445.41 2514.51,3431.57 2517.37,3420.92L2550.24,3335.52C2559.14,3310.65 2561.96,3290.3 2564.07,3268.83L2560.99,3231.81L2603.44,3155.51C2613.22,3130.78 2620.33,3098.55 2622.22,3051.65C2622.11,3036.38 2617.22,3016.93 2604.55,2994.77C2600.16,2987.01 2594.51,2980.03 2587.83,2974.11C2577.27,2964.57 2559.91,2949.17 2559.91,2949.17C2559.79,2946.37 2559.06,2941.92 2557.85,2936.17C2556.47,2928.91 2552.21,2922.51 2546.04,2918.45C2530.55,2908.14 2516.71,2895.5 2505.37,2878.41C2499.97,2874.89 2495.36,2870.8 2492.22,2867.28C2492.22,2867.28 2498.1,2865.01 2503.55,2862.89C2509.46,2860.61 2514.39,2856.34 2517.51,2850.82C2520.77,2845.05 2524.49,2838.47 2524.49,2838.47C2527.79,2839.44 2541.74,2802.79 2541.74,2802.79L2552.46,2789.84C2554.92,2786.27 2555.85,2784.23 2557.84,2778.67C2558.87,2775.81 2559.43,2772.8 2559.47,2769.76C2559.6,2762.9 2559.79,2750.41 2559.79,2750.41L2575.46,2729.03C2579.4,2726.56 2581.59,2725.03 2582.9,2718.06L2577.31,2687.52C2577.31,2687.52 2584.4,2681.11 2590.63,2675.48C2596.64,2670.04 2600.76,2662.82 2602.39,2654.88C2604.76,2643.37 2607.94,2627.88 2607.94,2627.88C2607.94,2627.88 2613.18,2594.96 2614.91,2584.05C2615.28,2581.75 2615.48,2579.42 2615.52,2577.09C2615.61,2570.32 2615.83,2555.45 2615.94,2547.98C2615.98,2545.01 2615.68,2542.05 2615.03,2539.16C2613.81,2533.64 2611.65,2523.93 2609.94,2516.23C2608.27,2508.74 2604.86,2501.74 2599.98,2495.8C2595.14,2489.92 2588.82,2482.23 2583.79,2476.12ZM2290.97,2649.52C2290.78,2647.78 2289.43,2646.4 2287.7,2646.16C2285.97,2645.92 2284.3,2646.88 2283.65,2648.5C2283.05,2649.96 2282.64,2650.96 2282.64,2650.96L2275.16,2659.76C2275.16,2659.76 2275.16,2665.35 2275.16,2668.64C2275.16,2670.14 2274.58,2671.6 2273.55,2672.69C2269.68,2676.79 2260.19,2686.83 2260.19,2686.83L2247.21,2696.52C2247.21,2696.52 2246.61,2697.41 2245.8,2698.63C2243.07,2702.72 2243.76,2708.2 2247.42,2711.48C2247.43,2711.48 2247.43,2711.48 2247.43,2711.48C2246.66,2713.36 2245.36,2714.7 2243.46,2715.45C2243.46,2715.45 2242.56,2714.93 2241.44,2714.29C2240.5,2713.75 2239.36,2713.71 2238.39,2714.18C2237.42,2714.65 2236.74,2715.57 2236.58,2716.63C2236.27,2718.63 2235.98,2720.51 2235.98,2720.51C2235.98,2720.51 2231.36,2720.51 2229.98,2720.51C2229.75,2720.51 2229.55,2720.65 2229.47,2720.87C2229.34,2721.25 2229.12,2721.91 2228.85,2722.72C2228.14,2724.8 2228.45,2727.1 2229.68,2728.92C2230.92,2730.74 2232.93,2731.87 2235.13,2731.98C2239.28,2732.19 2243.24,2732.39 2243.24,2732.39C2243.24,2732.39 2253.39,2729.43 2253.8,2729.31C2253.8,2729.31 2253.8,2729.31 2253.8,2729.31C2253.8,2729.3 2253.8,2729.3 2253.8,2729.3C2253.69,2729.08 2252.04,2725.78 2251.3,2724.3C2251.07,2723.84 2251.02,2723.32 2251.14,2722.82C2251.78,2720.25 2253.81,2712.14 2253.81,2712.14L2257.99,2698.5C2257.99,2698.5 2268.3,2687.77 2272.63,2683.28C2273.86,2681.99 2274.84,2680.48 2275.5,2678.82C2277.35,2674.2 2281.1,2664.82 2281.1,2664.82C2285.19,2661.89 2288.64,2657.84 2291.22,2652.28C2291.16,2651.37 2291.08,2650.44 2290.97,2649.52ZM2266.55,2596.37C2266.55,2596.37 2269.73,2592.12 2269.84,2591.97C2269.85,2591.97 2269.85,2591.97 2269.84,2591.97C2269.72,2591.86 2266.76,2589.33 2266.76,2589.33C2266.76,2589.33 2264.72,2591.38 2263.65,2592.44C2263.25,2592.85 2263.02,2593.39 2263.02,2593.96C2263.02,2595.07 2263.02,2596.81 2263.02,2596.81C2263.02,2596.81 2262.26,2601.11 2262,2602.53C2261.95,2602.82 2261.96,2603.13 2262.03,2603.42C2262.05,2603.5 2262.07,2603.6 2262.09,2603.69C2262.21,2604.2 2262.55,2604.63 2263.03,2604.84C2263.51,2605.05 2264.06,2605.03 2264.51,2604.78C2265.87,2604.05 2267.43,2603.2 2267.43,2603.2L2266.55,2596.37Z" style="fill:white;"/>
                    </g>
                    <g transform="matrix(0.152266,0,0,0.135878,-119.884,5645.63)">
                        <path d="M1779.01,3019.4C1794.52,3006.12 1812.46,2998 1831.58,2992.38C1851.75,2984.94 1877.75,2980.5 1910.03,2982.69C1917.64,2982.83 1926.96,2984.23 1938.18,2987.07C1956.85,2991.53 1972.96,2998.03 1987.98,3005.4C1992.29,3007.53 1996.36,3010.09 2000.15,3013.05C2016.42,3025.78 2030.13,3038.33 2041.31,3050.71C2058.19,3072.47 2067.78,3084.27 2076.67,3108.93C2077.14,3110.2 2077.64,3111.45 2078.18,3112.68C2087.21,3133.64 2089.9,3158.62 2090.4,3178.27C2090.46,3180.46 2090.42,3182.66 2090.3,3184.85C2089.29,3199.71 2086.12,3218.24 2080.53,3240.79C2071.75,3263.02 2062.97,3279.49 2054.19,3290.31C2040.81,3310.39 2024.42,3325.97 2006.64,3339.44C1990.27,3351.02 1974.36,3358.16 1955.49,3363.51C1953.98,3363.95 1952.49,3364.43 1951.02,3364.98C1924.33,3374.77 1888.25,3376.73 1854.54,3371.28C1835.89,3368.93 1819.1,3362.88 1804.12,3353.2C1788.94,3347 1775.39,3341.32 1757.86,3324.74C1749.61,3317.66 1742.95,3304.24 1735.74,3293.06C1739.14,3294.8 1742.55,3295.14 1745.95,3294.24C1750.49,3293.16 1753.47,3290.06 1755.39,3285.6C1756.76,3282.78 1756.64,3277.18 1755.39,3269.48C1751.89,3265.36 1746.97,3261.86 1740.84,3258.87L1722.37,3245.9C1718.32,3240.14 1711.26,3234.37 1702.33,3228.61C1700.75,3219.57 1696.55,3210.53 1688.96,3201.49C1687.86,3198.34 1689.94,3195.9 1695.22,3192L1712.94,3199.13C1719.16,3201.92 1724.34,3204.01 1734.32,3204.55C1740.12,3207.7 1750.45,3207.16 1758.14,3205.42C1763.89,3201.66 1765.43,3196.5 1764.43,3190.48C1764.39,3185.11 1761.5,3179.74 1756.96,3174.37L1738.49,3166.9L1715.3,3160.61L1697.61,3155.5C1693.66,3152.53 1689.31,3150.15 1684.61,3148.31C1684.72,3143.64 1685.78,3141.51 1687.02,3139.86L1703.12,3138.05L1721.63,3135.63C1731.04,3135.85 1740.27,3135.33 1749.2,3133.62C1757.47,3132.19 1761.19,3128.88 1762.48,3124.57C1764.19,3119.09 1764.33,3113.44 1761.28,3107.46C1757.44,3102.72 1753.03,3099.58 1748.19,3097.6C1738.85,3096.33 1729.26,3095.12 1718.91,3096.86L1711.17,3096.8C1713.88,3091.52 1716.63,3084.85 1720.59,3081.84C1725.69,3071.55 1732.18,3066.95 1734.64,3063.7L1744.57,3050.11L1758.46,3036.83L1779.01,3019.4Z" style="fill:rgb(126,184,229);"/>
                    </g>
                </g>
                <g transform="matrix(1.03176,0,0,1.0693,-6066.09,3409.1)">
                    <g transform="matrix(516.7,0,0,516.7,757.146,2467.19)">
                        <path d="M0.341,-0.298C0.358,-0.298 0.372,-0.297 0.385,-0.294C0.397,-0.291 0.406,-0.285 0.413,-0.278C0.421,-0.269 0.426,-0.258 0.427,-0.247C0.428,-0.235 0.429,-0.224 0.429,-0.213C0.429,-0.206 0.429,-0.199 0.428,-0.192C0.427,-0.185 0.425,-0.178 0.422,-0.171C0.419,-0.163 0.413,-0.154 0.406,-0.145C0.399,-0.135 0.39,-0.13 0.38,-0.13L0.058,-0.13C0.051,-0.13 0.048,-0.127 0.048,-0.12L0.048,-0.01C0.048,-0.003 0.051,-0 0.058,-0L0.422,-0C0.437,-0 0.452,-0.005 0.469,-0.014C0.485,-0.023 0.499,-0.032 0.51,-0.041C0.547,-0.074 0.569,-0.12 0.574,-0.181C0.575,-0.186 0.576,-0.192 0.576,-0.198L0.576,-0.219C0.576,-0.234 0.575,-0.25 0.573,-0.267C0.571,-0.284 0.568,-0.3 0.563,-0.315C0.558,-0.33 0.551,-0.345 0.544,-0.358C0.536,-0.371 0.526,-0.383 0.515,-0.392C0.496,-0.408 0.475,-0.419 0.452,-0.425C0.429,-0.43 0.408,-0.433 0.387,-0.433L0.275,-0.433C0.26,-0.433 0.246,-0.434 0.233,-0.435C0.22,-0.436 0.209,-0.441 0.202,-0.448C0.194,-0.457 0.189,-0.467 0.188,-0.478C0.187,-0.489 0.186,-0.5 0.186,-0.511C0.186,-0.518 0.186,-0.524 0.187,-0.531C0.188,-0.538 0.19,-0.544 0.193,-0.551C0.196,-0.558 0.202,-0.566 0.21,-0.575C0.217,-0.583 0.226,-0.587 0.235,-0.587L0.524,-0.587C0.531,-0.587 0.534,-0.59 0.534,-0.597L0.534,-0.707C0.534,-0.714 0.531,-0.717 0.524,-0.717L0.193,-0.717C0.177,-0.717 0.161,-0.713 0.144,-0.704C0.127,-0.695 0.113,-0.686 0.102,-0.677C0.063,-0.645 0.042,-0.6 0.037,-0.542C0.036,-0.536 0.035,-0.53 0.035,-0.524L0.035,-0.505C0.035,-0.49 0.036,-0.474 0.039,-0.459C0.041,-0.443 0.045,-0.428 0.05,-0.413C0.055,-0.398 0.061,-0.384 0.069,-0.371C0.076,-0.358 0.086,-0.346 0.097,-0.337C0.116,-0.322 0.138,-0.311 0.162,-0.306C0.185,-0.301 0.207,-0.298 0.228,-0.298L0.341,-0.298Z" style="fill:rgb(171,177,191);fill-rule:nonzero;"/>
                    </g>
                    <g transform="matrix(516.7,0,0,516.7,1071.82,2467.19)">
                        <path d="M0.041,-0.707L0.041,-0.01C0.041,-0.003 0.044,-0 0.051,-0L0.176,-0C0.183,-0 0.186,-0.003 0.186,-0.01L0.186,-0.707C0.186,-0.714 0.183,-0.717 0.176,-0.717L0.051,-0.717C0.044,-0.717 0.041,-0.714 0.041,-0.707Z" style="fill:rgb(171,177,191);fill-rule:nonzero;"/>
                    </g>
                    <g transform="matrix(516.7,0,0,516.7,1190.14,2467.19)">
                        <path d="M0.041,-0.707C0.041,-0.714 0.044,-0.717 0.051,-0.717L0.411,-0.717C0.435,-0.717 0.457,-0.713 0.478,-0.705C0.498,-0.697 0.516,-0.686 0.531,-0.671C0.546,-0.656 0.557,-0.637 0.566,-0.616C0.575,-0.595 0.579,-0.571 0.579,-0.544C0.579,-0.508 0.576,-0.48 0.57,-0.459C0.564,-0.438 0.557,-0.422 0.55,-0.411C0.542,-0.4 0.535,-0.392 0.529,-0.389C0.523,-0.385 0.52,-0.382 0.52,-0.38C0.52,-0.377 0.525,-0.37 0.536,-0.359C0.546,-0.348 0.557,-0.336 0.57,-0.322C0.575,-0.316 0.579,-0.309 0.583,-0.301C0.586,-0.293 0.589,-0.285 0.592,-0.277C0.595,-0.268 0.596,-0.26 0.598,-0.252C0.599,-0.243 0.599,-0.236 0.599,-0.23C0.599,-0.198 0.596,-0.168 0.59,-0.14C0.584,-0.112 0.574,-0.088 0.559,-0.067C0.544,-0.046 0.524,-0.03 0.499,-0.018C0.474,-0.006 0.443,-0 0.405,-0L0.051,-0C0.044,-0 0.041,-0.003 0.041,-0.01L0.041,-0.707ZM0.186,-0.14C0.186,-0.133 0.189,-0.13 0.196,-0.13L0.407,-0.13C0.418,-0.13 0.428,-0.133 0.435,-0.139C0.442,-0.145 0.448,-0.153 0.453,-0.162C0.458,-0.171 0.461,-0.18 0.463,-0.19C0.464,-0.2 0.465,-0.209 0.465,-0.216C0.465,-0.231 0.463,-0.244 0.46,-0.255C0.456,-0.265 0.451,-0.273 0.446,-0.279C0.44,-0.285 0.434,-0.289 0.427,-0.292C0.42,-0.294 0.413,-0.295 0.407,-0.295L0.196,-0.295C0.189,-0.295 0.186,-0.292 0.186,-0.285L0.186,-0.14ZM0.186,-0.44C0.186,-0.433 0.189,-0.43 0.196,-0.43L0.369,-0.43C0.396,-0.43 0.415,-0.436 0.426,-0.448C0.437,-0.459 0.443,-0.48 0.443,-0.511C0.443,-0.54 0.436,-0.56 0.421,-0.571C0.406,-0.582 0.389,-0.587 0.369,-0.587L0.196,-0.587C0.189,-0.587 0.186,-0.584 0.186,-0.577L0.186,-0.44Z" style="fill:rgb(171,177,191);fill-rule:nonzero;"/>
                    </g>
                    <g transform="matrix(516.7,0,0,516.7,1501.71,2467.19)">
                        <path d="M0.021,-0.006C0.021,-0.002 0.024,-0 0.029,-0L0.159,-0C0.166,-0 0.17,-0.003 0.172,-0.01L0.225,-0.181C0.227,-0.188 0.231,-0.192 0.238,-0.192L0.473,-0.192C0.48,-0.192 0.484,-0.189 0.486,-0.182L0.539,-0.009C0.541,-0.003 0.545,-0 0.552,-0L0.683,-0C0.688,-0 0.69,-0.002 0.69,-0.006L0.489,-0.658C0.481,-0.684 0.466,-0.7 0.445,-0.707C0.423,-0.714 0.393,-0.717 0.355,-0.717C0.318,-0.717 0.289,-0.714 0.268,-0.707C0.247,-0.7 0.232,-0.684 0.224,-0.658L0.021,-0.006ZM0.437,-0.341C0.437,-0.34 0.437,-0.339 0.438,-0.338C0.438,-0.337 0.438,-0.337 0.438,-0.336C0.438,-0.331 0.435,-0.329 0.43,-0.329L0.281,-0.329C0.276,-0.329 0.273,-0.331 0.273,-0.336C0.273,-0.337 0.273,-0.337 0.274,-0.338C0.274,-0.339 0.274,-0.34 0.274,-0.341L0.344,-0.569C0.348,-0.581 0.352,-0.587 0.355,-0.587C0.358,-0.587 0.361,-0.586 0.362,-0.584C0.363,-0.581 0.365,-0.576 0.367,-0.569L0.437,-0.341Z" style="fill:rgb(171,177,191);fill-rule:nonzero;"/>
                    </g>
                </g>
            </g>
        </g>
    </g>
</svg>
