<?xml version="1.0" encoding="UTF-8" standalone="no"?>
<!DOCTYPE svg PUBLIC "-//W3C//DTD SVG 1.1//EN" "http://www.w3.org/Graphics/SVG/1.1/DTD/svg11.dtd">
<svg width="100%" height="100%" viewBox="0 0 1750 400" version="1.1" xmlns="http://www.w3.org/2000/svg" xmlns:xlink="http://www.w3.org/1999/xlink" xml:space="preserve" xmlns:serif="http://www.serif.com/" style="fill-rule:evenodd;clip-rule:evenodd;stroke-linejoin:round;stroke-miterlimit:2;">
    <g transform="matrix(1,0,0,1,9.09495e-13,-5551)">
        <g id="Navbar-Image" serif:id="Navbar Image" transform="matrix(1.00966,0,0,0.65238,5938.93,1929.5)">
            <rect x="-5882.08" y="5551.2" width="1733.25" height="613.139" style="fill:none;"/>
            <clipPath id="_clip1">
                <rect x="-5882.08" y="5551.2" width="1733.25" height="613.139"/>
            </clipPath>
            <g clip-path="url(#_clip1)">
                <g id="Logo" transform="matrix(0.857143,0,0,0.75,-840.298,1387.8)">
                    <g transform="matrix(0.902734,0,0,1.59672,-5882.08,-3886.99)">
                        <path d="M512,6039L512,6295C512,6365.65 454.645,6423 384,6423L128,6423C57.355,6423 0,6365.65 0,6295L0,6039C0,5968.36 57.355,5911 128,5911L384,5911C454.645,5911 512,5968.36 512,6039Z" style="fill:rgb(47,86,138);"/>
                    </g>
                    <g transform="matrix(0.902734,0,0,1.59672,-5882.08,-3886.99)">
                        <path d="M0,6295L0,6039C0,5968.36 57.355,5911 128,5911L384,5911C390.394,5911 396.68,5911.47 402.824,5912.38C464.558,5921.49 512,5974.75 512,6039L512,6057.13L91.423,6417.69C38.576,6401.94 0,6352.94 0,6295Z" style="fill:rgb(218,218,218);"/>
                    </g>
                    <g transform="matrix(0.685354,-1.03924,0.365908,0.754932,-8140.42,1497.13)">
                        <path d="M-13.65,6423C-43.518,6348.57 -40.914,6248.52 -3.205,6177.89L21.061,6132.44L551.652,6132.44C592.588,6208.07 593.943,6322.57 552.124,6400.9L540.325,6423L-13.65,6423Z" style="fill:rgb(126,184,229);"/>
                    </g>
                    <g id="Logo1" serif:id="Logo" transform="matrix(1.10382,-0.0589148,0.0373257,2.18786,-6065.39,-7469.76)">
                        <g id="Outline" transform="matrix(0.151331,-0.0150355,0.0168488,0.135044,-159.726,5673.3)">
                            <path d="M2584.21,2476.62C2578.39,2469.55 2571.1,2463.84 2562.83,2459.9C2549.13,2453.36 2529.1,2443.8 2529.1,2443.8L2498.07,2432.59L2490.37,2414.99C2484.96,2406.07 2476.99,2397.21 2465.11,2392.61C2453.24,2389.45 2442.28,2389.89 2431.49,2391.05L2390.5,2402.88L2377.4,2401.23C2377.4,2401.23 2366.18,2394.05 2359.19,2389.58C2355.59,2387.28 2351.6,2385.65 2347.41,2384.79C2340.32,2383.32 2329.81,2381.15 2329.81,2381.15C2322.9,2376.06 2318.32,2380.01 2318.32,2380.01C2318.32,2380.01 2305.88,2376.46 2299.32,2377.66C2297.56,2380.42 2296.71,2383.43 2297.56,2386.96C2293.43,2389.66 2292.37,2388.25 2289.36,2387.2C2284.85,2382.24 2279.99,2380.69 2274.73,2383.25C2276.07,2386.75 2278.47,2390.07 2281.66,2393.25L2297.62,2401.78L2317.15,2416.91C2317.15,2416.91 2315.32,2416.91 2312.95,2416.91C2310.83,2416.91 2308.89,2418.12 2307.97,2420.03C2307.05,2421.94 2307.3,2424.21 2308.62,2425.87C2308.81,2426.09 2308.99,2426.32 2309.17,2426.54C2315.75,2430.86 2320.98,2432.76 2325.68,2433.69C2325.68,2433.69 2318.88,2437.16 2314.57,2439.35C2312.27,2440.52 2310.21,2442.1 2308.48,2444.01C2300.6,2452.67 2277.69,2477.87 2277.69,2477.87C2277.69,2477.87 2272.79,2484.35 2268.14,2490.51C2262.93,2497.4 2260.99,2506.23 2262.85,2514.68C2262.92,2514.97 2262.95,2515.13 2262.95,2515.13C2262.95,2515.13 2260.93,2520.11 2259.22,2524.3C2257.7,2528.01 2257.27,2532.08 2257.97,2536.04C2258.76,2540.55 2259.9,2546.99 2260.99,2553.18C2263.14,2565.33 2260.6,2577.83 2253.89,2588.18C2251.01,2592.65 2248.65,2596.29 2248.65,2596.29L2243.14,2615L2227.19,2631.78C2227.19,2631.78 2211.57,2643.23 2202.49,2649.88C2198.66,2652.69 2195.37,2656.17 2192.77,2660.15C2188.99,2666.1 2184.38,2671.19 2180.09,2674.31C2175.88,2677.36 2172.99,2681.89 2172.02,2687C2171.6,2688.86 2171.34,2690.25 2171.34,2690.25C2177.21,2683.43 2183.33,2677.9 2189.93,2675.37C2193.84,2673.84 2197.43,2671.63 2200.55,2668.83C2202.31,2667.25 2204.75,2665.83 2207.86,2664.56L2221.13,2652.97C2221.13,2652.97 2241.38,2632.52 2250.22,2623.59C2251.49,2622.31 2253.3,2621.74 2255.07,2622.05C2256.85,2622.37 2258.35,2623.54 2259.1,2625.17C2259.1,2625.17 2259.1,2625.18 2259.1,2625.18L2243.97,2646.36C2240.82,2652.29 2234.72,2661.59 2227.46,2672.22C2220.78,2679.47 2216.72,2686.71 2215.91,2693.96C2215.91,2693.96 2210.77,2700.33 2206.78,2705.28C2205.04,2707.43 2204.61,2710.35 2205.65,2712.91C2206.68,2715.47 2209.03,2717.27 2211.77,2717.61C2211.77,2717.62 2211.78,2717.62 2211.78,2717.62C2216,2722.48 2216.62,2728.44 2214.97,2733.3C2201.72,2733.9 2195.25,2732.94 2190.58,2733.71C2177.27,2735.93 2161.16,2732.38 2152.08,2727.8C2136.22,2728.81 2125.37,2726.17 2115.03,2729.73C2107.32,2732.38 2100.68,2731.12 2091.96,2730.82C2079.38,2726.43 2070.42,2726.94 2063.13,2734.29C2041.17,2728.31 2026.61,2727.77 2009.11,2727.59C2001.22,2727.5 1993.36,2728.64 1985.82,2730.97C1971.03,2735.47 1946.86,2742.93 1946.86,2742.93L1893.21,2769.07C1893.21,2769.07 1853.32,2802.4 1841.3,2812.45C1839.04,2814.34 1836.98,2816.44 1835.15,2818.73C1826.62,2829.37 1801.32,2860.95 1801.32,2860.95C1784.01,2873.89 1765.96,2883.9 1747.52,2892.32L1717.54,2908C1700.27,2920.87 1683.55,2933.74 1668.16,2946.62C1646.58,2964.95 1626.37,2977.8 1606.66,2988.61C1598.05,2990.64 1587.23,2991.84 1574.86,2992.46C1563.39,2993.76 1553.32,2996.84 1545.14,3002.37C1534.96,3009.8 1526.54,3017.22 1523.41,3024.65L1516.26,3048.04C1508.86,3059.88 1503.63,3073.51 1501.4,3089.58C1499.72,3103.69 1505.05,3117.13 1513.23,3130.3L1529.19,3157.53C1534.8,3166.34 1540.73,3174.73 1552.02,3175.97C1559.56,3186.53 1563.28,3206.41 1567.43,3225.21C1580,3242 1590.53,3261.59 1599.34,3283.54L1620.25,3311.88C1629.23,3320.24 1636.02,3322.39 1637.31,3323.31C1639.97,3325.22 1642.32,3327.4 1644.76,3329.27C1647.53,3331.13 1651.04,3331.51 1654.14,3330.28C1657.24,3329.06 1659.54,3326.38 1660.28,3323.13C1660.42,3323.16 1660.42,3323.16 1660.42,3323.16C1676.44,3341.34 1694.36,3354.91 1714.62,3362.77L1688.76,3386.95C1678.89,3396.35 1670.11,3408.82 1662.11,3423.49C1649.6,3432.91 1638.46,3446.64 1628.58,3464.32C1619.02,3472.85 1614.94,3485.48 1617.4,3503.01C1609.44,3514.9 1608.46,3524.17 1607.63,3539.06C1605.39,3542.29 1604.24,3544.96 1602.98,3549.25C1596.43,3571.5 1584.77,3596.97 1583.02,3623.38C1582.95,3643.94 1582.8,3664.69 1587.31,3674.96C1582.74,3681.43 1580.91,3694.36 1580.77,3713.55C1580.7,3720.59 1581.85,3727.59 1584.19,3734.24C1586.61,3741.2 1589.51,3749.46 1589.51,3749.46C1583.4,3769 1586.53,3786.03 1593.33,3802.64L1568.4,3865.4C1568.4,3865.4 1563.63,3883.47 1560.09,3896.85C1557.69,3905.95 1558.68,3915.61 1562.89,3924.02C1563.08,3924.39 1563.26,3924.75 1563.43,3925.11C1565.8,3929.84 1569.84,3933.52 1574.77,3935.43C1581.53,3938.07 1590.32,3941.49 1590.32,3941.49L1566.68,3982.75L1530.57,3997.8L1475.2,4026.28L1383.21,4059.81L1374.18,4058.09L1312.42,4077.63C1301.68,4069.83 1290.66,4063.31 1278.98,4059.74C1274.03,4056.62 1261.65,4056.99 1248.66,4057.66C1230.64,4050.86 1212.2,4045.89 1192.78,4045.19C1184.82,4043.33 1177.42,4039.76 1170.23,4036.95C1165.12,4034.96 1159.66,4034.95 1154.52,4034.88C1132.16,4039.49 1117.73,4046.66 1108.52,4055.51L1078.43,4089.04L1030.71,4163.84C1021.44,4176.7 1008.73,4186.89 994.174,4195.65C966.702,4215.95 958.623,4222.31 950.327,4233.48C934.225,4256.03 921.586,4281.87 917.227,4315.58C913.287,4339.94 910.882,4364.3 911.638,4388.66C911.638,4388.66 915.342,4411.77 918.005,4428.38C919.748,4439.25 924.33,4449.47 931.288,4458C933.205,4460.35 935.171,4462.76 936.987,4464.99C942.075,4471.23 948.629,4476.11 956.064,4479.2C956.9,4479.55 957.744,4479.9 958.582,4480.25C966.069,4483.37 974.405,4483.79 982.167,4481.44C988.55,4479.52 996.399,4477.15 1002.9,4475.18C1011.3,4472.65 1018.86,4467.9 1024.78,4461.43C1038.4,4446.56 1062.58,4420.16 1062.58,4420.16L1097.4,4359.11L1123.2,4318.28C1123.2,4318.28 1125.56,4319.68 1128.74,4321.58C1139.19,4327.81 1152.12,4328.18 1162.9,4322.55C1169.39,4319.17 1175.21,4316.13 1175.21,4316.13C1175.75,4313.04 1176.1,4308.31 1176.05,4299.94L1209.91,4274.15C1239.18,4272.26 1262,4263.91 1273.85,4244.6C1264.02,4236.09 1255.3,4225.78 1254.63,4216.35C1266.81,4227.43 1276.97,4230.67 1295.56,4224.33C1301.84,4219.06 1312.37,4215.27 1324.46,4216.51C1336.35,4217.72 1350.52,4215.43 1363.59,4206.98L1452.25,4210.74C1458.88,4209.56 1465.5,4210.02 1472.13,4213.43C1469.7,4222.04 1464.63,4229.06 1457.62,4234.92C1428.71,4248.91 1417.2,4252.95 1407.65,4255.88L1345.85,4287.58C1336.67,4294.82 1327,4299.58 1316.9,4302.23L1232.47,4346.15C1221.37,4353.9 1210.26,4371.81 1199.16,4398.81C1137.98,4436.6 1087.24,4466.04 1058.16,4478.15C1046.75,4482.38 1043.47,4485.24 1031.08,4492.82C1025.04,4496.52 1014.76,4497.63 1010.09,4502.64C990.282,4523.91 930.723,4550.41 880.858,4570.76C864.834,4554.9 851.617,4548.4 841.095,4550.88C827.89,4553.73 817.094,4562.21 809.391,4577.9C796.496,4585.16 785.436,4599.02 774.468,4608.54C753.44,4626.79 735.625,4642.98 725.029,4667.48C711.316,4669.8 706.469,4681.01 704.124,4682.56C699.954,4685.34 695.413,4684.51 690.101,4693.81C687.329,4701.11 689.929,4711.1 698.161,4723.9C701.207,4728.38 705.7,4732.86 715.356,4737.34L765.183,4797.3L805.33,4843.71L854.241,4907.3L893.991,4931.03L936.307,4934.39C963.712,4936.38 992.614,4936.12 1022.95,4933.71C1028.83,4930.94 1035.76,4926.72 1043.65,4921.17C1051.44,4915.91 1056.81,4907.76 1058.59,4898.53C1060.36,4889.3 1058.38,4879.75 1053.1,4871.97C1053.18,4871.92 1053.18,4871.92 1053.18,4871.92C1040.38,4867.49 1026.47,4864.9 1011.47,4864.13C1004.66,4855.98 996.424,4850.69 986.683,4848.41C970.905,4840.59 960.851,4828.05 957.544,4809.95C957.544,4809.95 961.106,4804.18 964.383,4798.86C967.894,4793.17 969.702,4786.59 969.595,4779.9C969.399,4767.73 969.098,4749.06 969.098,4749.06C969.098,4749.06 968.957,4743.64 968.804,4737.76C968.572,4728.81 973.338,4720.48 981.168,4716.14C982.047,4715.65 982.933,4715.16 983.813,4714.67C991.543,4710.39 995.825,4701.77 994.575,4693.03C993.116,4682.81 991.423,4670.97 991.423,4670.97L1089.48,4630.02C1105.6,4635.3 1113.68,4630.29 1116.6,4618.69C1191.73,4594.54 1266.52,4566.79 1340.91,4534.57L1482.63,4446.88C1482.63,4446.88 1550.4,4411.03 1595.08,4387.39C1619.71,4374.36 1640.81,4355.56 1656.59,4332.6C1676.88,4303.35 1699.06,4274.42 1721.45,4245.52C1747.44,4232.88 1767.47,4219.32 1783.91,4205.21C1783.91,4205.21 1784.19,4205.32 1784.66,4205.51C1792.39,4208.61 1801.22,4206.91 1807.25,4201.18C1818.7,4190.29 1836,4173.86 1836,4173.86C1836,4173.86 1889.47,4121.8 1920.13,4091.96C1933.89,4078.56 1944.12,4061.97 1949.9,4043.66C1949.9,4043.65 1949.9,4043.65 1949.9,4043.65L2004.24,3971.78L2035.19,3931.2L2054.45,3871.7L2080.59,3792.95C2080.59,3792.95 2095.54,3754.77 2102.83,3736.18C2105.41,3729.58 2107.06,3722.66 2107.74,3715.6C2109.41,3698.07 2112.57,3665.02 2112.57,3665.02L2135.26,3622.03L2170.69,3598.99L2218.68,3552.22L2243.79,3505.79L2259.26,3466.59L2337.67,3359.29C2354.99,3337.13 2375.49,3316.7 2396.14,3296.36C2393.5,3319.12 2389.03,3341.6 2382.49,3363.76C2382.49,3363.76 2378.78,3379.43 2377.21,3386.01C2376.76,3387.91 2376.47,3389.85 2376.34,3391.8C2375.62,3402.82 2373.1,3441.14 2373.1,3441.14C2373.1,3441.14 2368.04,3448.5 2364.24,3454.04C2361.64,3457.82 2359.81,3462.07 2358.86,3466.56C2358.15,3470.8 2356.59,3474.98 2354.5,3479.16C2353.07,3487.94 2352.21,3493.62 2349.58,3497.88C2348.97,3504.04 2348.15,3510.94 2345.37,3517.71C2340.69,3529.12 2338.46,3537.57 2333.97,3548.09C2329.81,3582.37 2328.21,3605.76 2325.59,3637.88L2321.59,3672.24C2319.44,3681.57 2317.36,3691.49 2315.51,3703.52C2315.69,3710.53 2316.76,3714.74 2320.56,3716.95L2307.83,3765.44L2288.23,3784.01C2280.53,3791.25 2276.07,3800.74 2274.47,3812.21C2276.86,3823.56 2279.75,3829.41 2283.07,3830.43L2281.35,3849.01C2281.41,3857.26 2285.47,3862.77 2293.05,3865.86L2307.34,3862.58C2310.94,3884.61 2318.72,3905.48 2335,3923.29C2332.39,3932.22 2331.54,3940.57 2333.15,3948.09L2324.02,3964.75L2311.66,3980.33C2310.32,3988.92 2312.8,3991.95 2317.57,3991.62L2334.76,3984.09C2341.14,3979.86 2347.33,3974.96 2350.89,3967.44C2360.55,3962.51 2368.8,3955.61 2376.12,3947.4C2381.6,3943.95 2386.65,3937.76 2391.19,3928.21C2395.09,3920.71 2398.22,3912.82 2400.13,3904.33C2401.4,3898.4 2401.55,3892.28 2400.57,3886.3C2399.14,3875.25 2395.48,3852.98 2395.48,3852.98L2386.89,3808.92L2389.57,3769.16L2400.15,3747.84C2403.2,3744.67 2408.58,3742.68 2411.84,3738.81C2425.74,3722.29 2438.97,3698.05 2452.95,3671.29C2453.02,3671.15 2453.09,3671.02 2453.15,3670.88C2470.58,3634.51 2488.41,3597.25 2504.16,3552.79C2510.89,3533.64 2514.12,3513.43 2513.7,3493.13C2513.41,3488.81 2513.49,3484.45 2513.7,3480.07C2519,3473.01 2521.11,3468.14 2520.4,3465.21C2519.64,3462.41 2517.66,3459.61 2514.26,3456.81C2514.49,3445.41 2514.51,3431.57 2517.37,3420.92L2550.24,3335.52C2559.14,3310.65 2561.96,3290.3 2564.07,3268.83L2560.99,3231.81L2603.44,3155.51C2613.22,3130.78 2620.33,3098.55 2622.22,3051.65C2622.11,3036.06 2617.01,3016.12 2603.75,2993.39C2599.67,2986.34 2594.49,2980 2588.39,2974.59C2577.88,2965.11 2559.91,2949.17 2559.91,2949.17C2559.82,2947.12 2559.41,2944.19 2558.72,2940.5C2557.24,2930.91 2551.85,2922.37 2543.83,2916.91C2529.22,2906.91 2516.16,2894.68 2505.37,2878.41C2499.97,2874.89 2495.36,2870.8 2492.22,2867.28C2492.22,2867.28 2496.41,2865.66 2500.99,2863.89C2508.55,2860.96 2514.87,2855.5 2518.86,2848.43C2521.71,2843.38 2524.49,2838.47 2524.49,2838.47C2527.79,2839.44 2541.74,2802.79 2541.74,2802.79L2552.46,2789.84C2555.08,2786.03 2555.97,2783.97 2558.25,2777.52C2559.02,2775.33 2559.44,2773.03 2559.47,2770.71C2559.58,2764.14 2559.79,2750.41 2559.79,2750.41L2575.46,2729.03C2579.4,2726.56 2581.59,2725.03 2582.9,2718.06L2577.31,2687.52C2577.31,2687.52 2584.98,2680.59 2591.38,2674.8C2596.9,2669.8 2600.69,2663.17 2602.19,2655.87C2604.57,2644.28 2607.94,2627.88 2607.94,2627.88C2607.94,2627.88 2613.18,2594.95 2614.91,2584.05C2615.28,2581.75 2615.48,2579.42 2615.52,2577.09C2615.61,2570.68 2615.81,2557 2615.92,2549.23C2615.97,2545.43 2615.59,2541.64 2614.76,2537.94C2613.51,2532.28 2611.53,2523.37 2609.94,2516.22C2608.27,2508.73 2604.87,2501.74 2599.99,2495.81C2595.28,2490.09 2589.17,2482.65 2584.21,2476.62ZM2291.12,2651.01C2290.95,2649.1 2289.49,2647.54 2287.59,2647.26C2285.69,2646.97 2283.83,2648.03 2283.11,2649.81C2282.82,2650.52 2282.64,2650.96 2282.64,2650.96L2275.16,2659.76L2275.16,2670.99L2260.19,2686.83L2247.21,2696.52C2247.21,2696.52 2246.61,2697.41 2245.79,2698.64C2243.07,2702.72 2243.76,2708.2 2247.42,2711.48C2247.42,2711.48 2247.43,2711.48 2247.43,2711.48C2246.66,2713.36 2245.36,2714.7 2243.46,2715.45C2243.46,2715.45 2242.54,2714.92 2241.41,2714.27C2240.48,2713.74 2239.35,2713.7 2238.38,2714.16C2237.42,2714.63 2236.74,2715.54 2236.58,2716.6C2236.27,2718.61 2235.98,2720.51 2235.98,2720.51C2235.98,2720.51 2232.96,2720.51 2231.08,2720.51C2230.19,2720.51 2229.41,2721.07 2229.12,2721.91C2229.11,2721.95 2229.09,2721.99 2229.08,2722.03C2228.32,2724.28 2228.65,2726.75 2229.98,2728.71C2231.31,2730.67 2233.49,2731.9 2235.85,2732.02C2239.72,2732.21 2243.24,2732.39 2243.24,2732.39C2243.24,2732.39 2245.81,2731.64 2248.42,2730.88C2249.75,2730.49 2250.85,2729.53 2251.4,2728.26C2251.96,2726.99 2251.92,2725.53 2251.3,2724.29C2251.25,2724.2 2251.21,2724.12 2251.18,2724.04C2251.03,2723.75 2250.99,2723.41 2251.07,2723.1C2251.62,2720.9 2253.81,2712.14 2253.81,2712.14L2257.99,2698.5C2257.99,2698.5 2267.53,2688.58 2272.1,2683.82C2273.68,2682.18 2274.93,2680.24 2275.78,2678.12C2277.7,2673.32 2281.1,2664.82 2281.1,2664.82C2285.19,2661.89 2288.64,2657.84 2291.22,2652.28C2291.2,2651.86 2291.16,2651.44 2291.12,2651.01ZM2266.55,2596.37C2266.55,2596.37 2269.72,2592.14 2269.84,2591.98C2269.85,2591.97 2269.85,2591.97 2269.84,2591.97C2269.7,2591.85 2266.76,2589.33 2266.76,2589.33C2266.76,2589.33 2264.69,2591.41 2263.63,2592.47C2263.24,2592.85 2263.02,2593.38 2263.02,2593.93C2263.02,2595.03 2263.02,2596.81 2263.02,2596.81L2261.92,2602.98C2261.92,2602.98 2261.92,2602.98 2261.93,2602.99C2261.34,2603.31 2261.04,2603.97 2261.19,2604.62C2261.34,2605.27 2261.89,2605.74 2262.55,2605.78C2262.59,2605.83 2263.06,2605.58 2263.71,2605.22C2265.95,2604 2267.21,2601.53 2266.88,2599C2266.7,2597.59 2266.55,2596.37 2266.55,2596.37Z" style="fill:white;"/>
                        </g>
                        <g transform="matrix(0.152266,0,0,0.135878,-119.884,5645.63)">
                            <path d="M1779.01,3019.4C1794.52,3006.12 1812.46,2998 1831.58,2992.38C1851.75,2984.94 1877.75,2980.5 1910.03,2982.69C1917.64,2982.83 1926.96,2984.23 1938.18,2987.07C1957.22,2991.61 1973.59,2998.29 1988.87,3005.84C1992.61,3007.7 1996.15,3009.93 1999.44,3012.49C2016.02,3025.41 2029.97,3038.15 2041.31,3050.71C2058.56,3072.94 2068.19,3084.78 2077.25,3110.55C2077.67,3111.71 2078.12,3112.85 2078.61,3113.98C2087.34,3134.69 2089.93,3159.15 2090.41,3178.44C2090.46,3180.49 2090.43,3182.54 2090.31,3184.59C2089.32,3199.5 2086.15,3218.11 2080.53,3240.79C2071.75,3263.02 2062.97,3279.49 2054.19,3290.31C2040.81,3310.39 2024.42,3325.97 2006.64,3339.44C1990.29,3351 1974.4,3358.14 1955.56,3363.49C1954,3363.94 1952.46,3364.45 1950.94,3365.01C1924.26,3374.78 1888.22,3376.73 1854.54,3371.28C1835.89,3368.93 1819.1,3362.88 1804.12,3353.2C1788.94,3347 1775.39,3341.32 1757.86,3324.74C1749.61,3317.66 1742.95,3304.24 1735.74,3293.06C1739.14,3294.8 1742.55,3295.14 1745.95,3294.24C1750.49,3293.16 1753.47,3290.06 1755.39,3285.6C1756.76,3282.78 1756.64,3277.18 1755.39,3269.48C1751.89,3265.36 1746.97,3261.86 1740.84,3258.87L1722.37,3245.9C1718.32,3240.14 1711.26,3234.37 1702.33,3228.61C1700.75,3219.57 1696.55,3210.53 1688.96,3201.49C1687.86,3198.34 1689.94,3195.9 1695.22,3192L1712.94,3199.13C1719.16,3201.92 1724.34,3204.01 1734.32,3204.55C1740.12,3207.7 1750.45,3207.16 1758.14,3205.42C1763.89,3201.66 1765.43,3196.5 1764.43,3190.48C1764.39,3185.11 1761.5,3179.74 1756.96,3174.37L1738.49,3166.9L1715.3,3160.61L1697.61,3155.5C1693.66,3152.53 1689.31,3150.15 1684.61,3148.31C1684.72,3143.64 1685.78,3141.51 1687.02,3139.86L1703.12,3138.05L1721.63,3135.63C1731.04,3135.85 1740.27,3135.33 1749.2,3133.62C1757.47,3132.19 1761.19,3128.88 1762.48,3124.57C1764.19,3119.09 1764.33,3113.44 1761.28,3107.46C1757.44,3102.72 1753.03,3099.58 1748.19,3097.6C1738.85,3096.33 1729.26,3095.12 1718.91,3096.86L1711.17,3096.8C1713.88,3091.52 1716.63,3084.85 1720.59,3081.84C1725.69,3071.55 1732.18,3066.95 1734.64,3063.7L1744.57,3050.11L1758.46,3036.83L1779.01,3019.4Z" style="fill:rgb(126,184,229);"/>
                        </g>
                    </g>
                </g>
                <g transform="matrix(1.06217,0,0,1.64944,-6122.59,2092.79)">
                    <g transform="matrix(516.7,0,0,516.7,757.146,2467.19)">
                        <path d="M0.341,-0.298C0.358,-0.298 0.372,-0.297 0.385,-0.294C0.397,-0.291 0.406,-0.285 0.413,-0.278C0.421,-0.269 0.426,-0.258 0.427,-0.247C0.428,-0.235 0.429,-0.224 0.429,-0.213C0.429,-0.206 0.429,-0.199 0.428,-0.192C0.427,-0.185 0.425,-0.178 0.422,-0.171C0.419,-0.163 0.413,-0.154 0.406,-0.145C0.399,-0.135 0.39,-0.13 0.38,-0.13L0.058,-0.13C0.051,-0.13 0.048,-0.127 0.048,-0.12L0.048,-0.01C0.048,-0.003 0.051,-0 0.058,-0L0.422,-0C0.437,-0 0.452,-0.005 0.469,-0.014C0.485,-0.023 0.499,-0.032 0.51,-0.041C0.547,-0.074 0.569,-0.12 0.574,-0.181C0.575,-0.186 0.576,-0.192 0.576,-0.198L0.576,-0.219C0.576,-0.234 0.575,-0.25 0.573,-0.267C0.571,-0.284 0.568,-0.3 0.563,-0.315C0.558,-0.33 0.551,-0.345 0.544,-0.358C0.536,-0.371 0.526,-0.383 0.515,-0.392C0.496,-0.408 0.475,-0.419 0.452,-0.425C0.429,-0.43 0.408,-0.433 0.387,-0.433L0.275,-0.433C0.26,-0.433 0.246,-0.434 0.233,-0.435C0.22,-0.436 0.209,-0.441 0.202,-0.448C0.194,-0.457 0.189,-0.467 0.188,-0.478C0.187,-0.489 0.186,-0.5 0.186,-0.511C0.186,-0.518 0.186,-0.524 0.187,-0.531C0.188,-0.538 0.19,-0.544 0.193,-0.551C0.196,-0.558 0.202,-0.566 0.21,-0.575C0.217,-0.583 0.226,-0.587 0.235,-0.587L0.524,-0.587C0.531,-0.587 0.534,-0.59 0.534,-0.597L0.534,-0.707C0.534,-0.714 0.531,-0.717 0.524,-0.717L0.193,-0.717C0.177,-0.717 0.161,-0.713 0.144,-0.704C0.127,-0.695 0.113,-0.686 0.102,-0.677C0.063,-0.645 0.042,-0.6 0.037,-0.542C0.036,-0.536 0.035,-0.53 0.035,-0.524L0.035,-0.505C0.035,-0.49 0.036,-0.474 0.039,-0.459C0.041,-0.443 0.045,-0.428 0.05,-0.413C0.055,-0.398 0.061,-0.384 0.069,-0.371C0.076,-0.358 0.086,-0.346 0.097,-0.337C0.116,-0.322 0.138,-0.311 0.162,-0.306C0.185,-0.301 0.207,-0.298 0.228,-0.298L0.341,-0.298Z" style="fill:rgb(235,236,240);fill-rule:nonzero;"/>
                    </g>
                    <g transform="matrix(516.7,0,0,516.7,1071.82,2467.19)">
                        <path d="M0.041,-0.707L0.041,-0.01C0.041,-0.003 0.044,-0 0.051,-0L0.176,-0C0.183,-0 0.186,-0.003 0.186,-0.01L0.186,-0.707C0.186,-0.714 0.183,-0.717 0.176,-0.717L0.051,-0.717C0.044,-0.717 0.041,-0.714 0.041,-0.707Z" style="fill:rgb(235,236,240);fill-rule:nonzero;"/>
                    </g>
                    <g transform="matrix(516.7,0,0,516.7,1190.14,2467.19)">
                        <path d="M0.041,-0.707C0.041,-0.714 0.044,-0.717 0.051,-0.717L0.411,-0.717C0.435,-0.717 0.457,-0.713 0.478,-0.705C0.498,-0.697 0.516,-0.686 0.531,-0.671C0.546,-0.656 0.557,-0.637 0.566,-0.616C0.575,-0.595 0.579,-0.571 0.579,-0.544C0.579,-0.508 0.576,-0.48 0.57,-0.459C0.564,-0.438 0.557,-0.422 0.55,-0.411C0.542,-0.4 0.535,-0.392 0.529,-0.389C0.523,-0.385 0.52,-0.382 0.52,-0.38C0.52,-0.377 0.525,-0.37 0.536,-0.359C0.546,-0.348 0.557,-0.336 0.57,-0.322C0.575,-0.316 0.579,-0.309 0.583,-0.301C0.586,-0.293 0.589,-0.285 0.592,-0.277C0.595,-0.268 0.596,-0.26 0.598,-0.252C0.599,-0.243 0.599,-0.236 0.599,-0.23C0.599,-0.198 0.596,-0.168 0.59,-0.14C0.584,-0.112 0.574,-0.088 0.559,-0.067C0.544,-0.046 0.524,-0.03 0.499,-0.018C0.474,-0.006 0.443,-0 0.405,-0L0.051,-0C0.044,-0 0.041,-0.003 0.041,-0.01L0.041,-0.707ZM0.186,-0.14C0.186,-0.133 0.189,-0.13 0.196,-0.13L0.407,-0.13C0.418,-0.13 0.428,-0.133 0.435,-0.139C0.442,-0.145 0.448,-0.153 0.453,-0.162C0.458,-0.171 0.461,-0.18 0.463,-0.19C0.464,-0.2 0.465,-0.209 0.465,-0.216C0.465,-0.231 0.463,-0.244 0.46,-0.255C0.456,-0.265 0.451,-0.273 0.446,-0.279C0.44,-0.285 0.434,-0.289 0.427,-0.292C0.42,-0.294 0.413,-0.295 0.407,-0.295L0.196,-0.295C0.189,-0.295 0.186,-0.292 0.186,-0.285L0.186,-0.14ZM0.186,-0.44C0.186,-0.433 0.189,-0.43 0.196,-0.43L0.369,-0.43C0.396,-0.43 0.415,-0.436 0.426,-0.448C0.437,-0.459 0.443,-0.48 0.443,-0.511C0.443,-0.54 0.436,-0.56 0.421,-0.571C0.406,-0.582 0.389,-0.587 0.369,-0.587L0.196,-0.587C0.189,-0.587 0.186,-0.584 0.186,-0.577L0.186,-0.44Z" style="fill:rgb(235,236,240);fill-rule:nonzero;"/>
                    </g>
                    <g transform="matrix(516.7,0,0,516.7,1501.71,2467.19)">
                        <path d="M0.021,-0.006C0.021,-0.002 0.024,-0 0.029,-0L0.159,-0C0.166,-0 0.17,-0.003 0.172,-0.01L0.225,-0.181C0.227,-0.188 0.231,-0.192 0.238,-0.192L0.473,-0.192C0.48,-0.192 0.484,-0.189 0.486,-0.182L0.539,-0.009C0.541,-0.003 0.545,-0 0.552,-0L0.683,-0C0.688,-0 0.69,-0.002 0.69,-0.006L0.489,-0.658C0.481,-0.684 0.466,-0.7 0.445,-0.707C0.423,-0.714 0.393,-0.717 0.355,-0.717C0.318,-0.717 0.289,-0.714 0.268,-0.707C0.247,-0.7 0.232,-0.684 0.224,-0.658L0.021,-0.006ZM0.437,-0.341C0.437,-0.34 0.437,-0.339 0.438,-0.338C0.438,-0.337 0.438,-0.337 0.438,-0.336C0.438,-0.331 0.435,-0.329 0.43,-0.329L0.281,-0.329C0.276,-0.329 0.273,-0.331 0.273,-0.336C0.273,-0.337 0.273,-0.337 0.274,-0.338C0.274,-0.339 0.274,-0.34 0.274,-0.341L0.344,-0.569C0.348,-0.581 0.352,-0.587 0.355,-0.587C0.358,-0.587 0.361,-0.586 0.362,-0.584C0.363,-0.581 0.365,-0.576 0.367,-0.569L0.437,-0.341Z" style="fill:rgb(235,236,240);fill-rule:nonzero;"/>
                    </g>
                </g>
            </g>
        </g>
    </g>
</svg>
